<svg width="10" height="11" viewBox="0 0 10 11" fill="none" xmlns="http://www.w3.org/2000/svg">
<path d="M0.142578 0.603283C0.142578 0.502723 0.182525 0.406282 0.253632 0.335175C0.324739 0.264068 0.42118 0.224121 0.52174 0.224121H9.62162C9.72218 0.224121 9.81862 0.264068 9.88973 0.335175C9.96084 0.406282 10.0008 0.502723 10.0008 0.603283V2.11993C10.0008 2.21344 9.9662 2.30364 9.90372 2.37321L6.58833 6.05715V9.70317C6.58827 9.78271 6.56319 9.86022 6.51665 9.92473C6.4701 9.98924 6.40445 10.0375 6.32898 10.0626L4.05401 10.8209C3.99704 10.8399 3.93638 10.8451 3.87702 10.836C3.81766 10.827 3.7613 10.8039 3.71258 10.7689C3.66385 10.7338 3.62417 10.6876 3.59678 10.6342C3.56939 10.5807 3.55508 10.5215 3.55503 10.4615V6.05715L0.239644 2.37321C0.177164 2.30364 0.142595 2.21344 0.142578 2.11993V0.603283ZM0.900902 0.982445V1.97433L4.21629 5.65827C4.27877 5.72784 4.31334 5.81804 4.31336 5.91155V9.93521L5.83001 9.43017V5.91155C5.83002 5.81804 5.86459 5.72784 5.92707 5.65827L9.24246 1.97433V0.982445H0.900902Z" fill="#ACA9B6" fill-opacity="0.75"/>
<path d="M6.40044 5.88805L6.33555 5.96015V6.05715V9.70298C6.33553 9.72949 6.32718 9.75533 6.31166 9.77683C6.29615 9.79833 6.27426 9.81441 6.24911 9.82279L6.24905 9.82281L3.97413 10.5811C3.97412 10.5811 3.9741 10.5811 3.97408 10.5811C3.9551 10.5874 3.9349 10.5892 3.91514 10.5861C3.89535 10.5831 3.87656 10.5755 3.86032 10.5638C3.84408 10.5521 3.83085 10.5367 3.82172 10.5189C3.81259 10.501 3.80782 10.4813 3.80781 10.4613V6.05715V5.96015L3.74292 5.88805L0.427708 2.20431C0.427694 2.2043 0.42768 2.20428 0.427667 2.20427C0.406876 2.18109 0.395369 2.15106 0.395353 2.11993C0.395353 2.11992 0.395353 2.1199 0.395353 2.11988V0.603283C0.395353 0.569763 0.408668 0.537616 0.432371 0.513914C0.456073 0.490211 0.48822 0.476896 0.52174 0.476896H9.62162C9.65514 0.476896 9.68729 0.490212 9.71099 0.513914C9.73469 0.537615 9.74801 0.569762 9.74801 0.603283V2.11988C9.74801 2.1199 9.74801 2.11992 9.74801 2.11993C9.74799 2.15106 9.73649 2.18108 9.71571 2.20426C9.71569 2.20427 9.71567 2.20429 9.71566 2.20431L6.40044 5.88805ZM0.900902 0.72967H0.648127V0.982445V1.97433V2.07133L0.713012 2.14343L4.02823 5.82717C4.02825 5.82719 4.02826 5.8272 4.02828 5.82722C4.04906 5.85039 4.06057 5.88042 4.06058 5.91155C4.06058 5.91156 4.06058 5.91158 4.06058 5.91159V9.93521V10.2858L4.39322 10.175L5.90987 9.67L6.08278 9.61242V9.43017V5.91159C6.08278 5.91158 6.08278 5.91156 6.08278 5.91155C6.0828 5.88042 6.0943 5.8504 6.11509 5.82722C6.1151 5.8272 6.11512 5.82719 6.11514 5.82717L9.43035 2.14343L9.49524 2.07133V1.97433V0.982445V0.72967H9.24246H0.900902Z" stroke="#ACA9B6" stroke-opacity="0.75" stroke-width="0.505549"/>
</svg>
