<svg width="13" height="13" viewBox="0 0 13 13" fill="none" xmlns="http://www.w3.org/2000/svg">
<g clip-path="url(#clip0_489_2397)">
<path d="M10.6216 11.0824V3.87828L7.20916 0.46582H3.03838C2.63614 0.46582 2.25037 0.62561 1.96594 0.910036C1.68152 1.19446 1.52173 1.58023 1.52173 1.98247V11.0824C1.52173 11.4846 1.68152 11.8704 1.96594 12.1548C2.25037 12.4392 2.63614 12.599 3.03838 12.599H9.10496C9.5072 12.599 9.89297 12.4392 10.1774 12.1548C10.4618 11.8704 10.6216 11.4846 10.6216 11.0824ZM7.20916 2.74079C7.20916 3.04247 7.329 3.33179 7.54232 3.54511C7.75564 3.75843 8.04496 3.87828 8.34664 3.87828H9.86329V7.29073H2.28005V1.98247C2.28005 1.78135 2.35995 1.58846 2.50216 1.44625C2.64437 1.30404 2.83726 1.22414 3.03838 1.22414H7.20916V2.74079ZM2.28005 9.5657V8.04906H3.7967V9.5657H2.28005ZM2.28005 10.324H3.7967V11.8407H3.03838C2.83726 11.8407 2.64437 11.7608 2.50216 11.6186C2.35995 11.4764 2.28005 11.2835 2.28005 11.0824V10.324ZM4.55502 11.8407V10.324H6.82999V11.8407H4.55502ZM7.58832 11.8407V10.324H9.86329V11.0824C9.86329 11.2835 9.78339 11.4764 9.64118 11.6186C9.49897 11.7608 9.30608 11.8407 9.10496 11.8407H7.58832ZM9.86329 9.5657H7.58832V8.04906H9.86329V9.5657ZM4.55502 9.5657V8.04906H6.82999V9.5657H4.55502Z" fill="#ACA9B6" fill-opacity="0.75"/>
<path d="M10.1161 3.87828V3.7302L10.3688 3.98298V11.0824C10.3688 11.4176 10.2357 11.739 9.99866 11.976C9.76163 12.2131 9.44016 12.3462 9.10496 12.3462H3.03838C2.70318 12.3462 2.3817 12.2131 2.14468 11.976C1.90766 11.739 1.7745 11.4176 1.7745 11.0824V1.98247C1.7745 1.64727 1.90766 1.3258 2.14468 1.08877C2.3817 0.851753 2.70318 0.718595 3.03838 0.718595H7.10445L7.35723 0.971369H7.20916H3.03838C2.77022 0.971369 2.51304 1.0779 2.32342 1.26751C2.1338 1.45713 2.02728 1.71431 2.02728 1.98247V7.29073V7.54351H2.28005H9.86329H10.1161V7.29073V3.87828ZM7.46193 1.07607L10.0114 3.6255H9.86329H8.34664C8.112 3.6255 7.88697 3.53229 7.72106 3.36638C7.55514 3.20046 7.46193 2.97543 7.46193 2.74079V1.22414V1.07607ZM2.02728 9.5657V9.81848H2.28005H3.7967H4.04947V9.5657V8.04906V7.79628H3.7967H2.28005H2.02728V8.04906V9.5657ZM2.28005 10.0713H2.02728V10.324V11.0824C2.02728 11.3505 2.1338 11.6077 2.32342 11.7973C2.51304 11.9869 2.77022 12.0934 3.03838 12.0934H3.7967H4.04947V11.8407V10.324V10.0713H3.7967H2.28005ZM4.30225 11.8407V12.0934H4.55502H6.82999H7.08277V11.8407V10.324V10.0713H6.82999H4.55502H4.30225V10.324V11.8407ZM7.33554 11.8407V12.0934H7.58832H9.10496C9.37313 12.0934 9.6303 11.9869 9.81992 11.7973C10.0095 11.6077 10.1161 11.3505 10.1161 11.0824V10.324V10.0713H9.86329H7.58832H7.33554V10.324V11.8407ZM9.86329 9.81848H10.1161V9.5657V8.04906V7.79628H9.86329H7.58832H7.33554V8.04906V9.5657V9.81848H7.58832H9.86329ZM4.30225 9.5657V9.81848H4.55502H6.82999H7.08277V9.5657V8.04906V7.79628H6.82999H4.55502H4.30225V8.04906V9.5657Z" stroke="#ACA9B6" stroke-opacity="0.75" stroke-width="0.505549"/>
</g>
<defs>
<clipPath id="clip0_489_2397">
<rect width="12.1332" height="12.1332" fill="white" transform="translate(0.00506592 0.46582)"/>
</clipPath>
</defs>
</svg>
