<svg width="13" height="13" viewBox="0 0 13 13" fill="none" xmlns="http://www.w3.org/2000/svg">
<g clip-path="url(#clip0_489_2400)">
<path fill-rule="evenodd" clip-rule="evenodd" d="M4.93417 9.5657C5.48188 9.5657 6.02424 9.45782 6.53026 9.24822C7.03628 9.03862 7.49606 8.7314 7.88336 8.34411C8.27065 7.95682 8.57787 7.49703 8.78747 6.99101C8.99707 6.48499 9.10495 5.94264 9.10495 5.39492C9.10495 4.84721 8.99707 4.30486 8.78747 3.79884C8.57787 3.29281 8.27065 2.83303 7.88336 2.44574C7.49606 2.05844 7.03628 1.75123 6.53026 1.54163C6.02424 1.33202 5.48188 1.22414 4.93417 1.22414C3.82801 1.22414 2.76716 1.66356 1.98498 2.44574C1.20281 3.22791 0.76339 4.28876 0.76339 5.39492C0.76339 6.50108 1.20281 7.56194 1.98498 8.34411C2.76716 9.12628 3.82801 9.5657 4.93417 9.5657ZM9.86327 5.39492C9.86327 6.7022 9.34396 7.95594 8.41957 8.88033C7.49519 9.80471 6.24145 10.324 4.93417 10.324C3.62689 10.324 2.37315 9.80471 1.44877 8.88033C0.524381 7.95594 0.00506592 6.7022 0.00506592 5.39492C0.00506592 4.08764 0.524381 2.83391 1.44877 1.90952C2.37315 0.985135 3.62689 0.46582 4.93417 0.46582C6.24145 0.46582 7.49519 0.985135 8.41957 1.90952C9.34396 2.83391 9.86327 4.08764 9.86327 5.39492Z" fill="#ACA9B6" fill-opacity="0.75"/>
<path d="M4.93417 9.81848C5.51508 9.81848 6.0903 9.70406 6.62699 9.48176C7.16368 9.25945 7.65133 8.93361 8.06209 8.52285C8.47286 8.11208 8.7987 7.62444 9.021 7.08775C9.24331 6.55105 9.35772 5.97583 9.35772 5.39492C9.35772 4.81401 9.24331 4.23879 9.021 3.7021C8.7987 3.16541 8.47286 2.67776 8.0621 2.267C7.65133 1.85623 7.16368 1.5304 6.62699 1.30809C6.0903 1.08579 5.51508 0.971369 4.93417 0.971369C3.76097 0.971369 2.63582 1.43742 1.80624 2.267C0.976667 3.09658 0.510615 4.22172 0.510615 5.39492C0.510615 6.56812 0.976667 7.69327 1.80624 8.52285C2.63582 9.35243 3.76097 9.81848 4.93417 9.81848ZM9.6105 5.39492C9.6105 6.63516 9.11782 7.82461 8.24083 8.70159C7.36385 9.57857 6.17441 10.0713 4.93417 10.0713C3.69393 10.0713 2.50449 9.57857 1.62751 8.70159C0.750524 7.82461 0.25784 6.63516 0.25784 5.39492C0.25784 4.15468 0.750524 2.96524 1.62751 2.08826C2.50449 1.21128 3.69393 0.718595 4.93417 0.718595C6.17441 0.718595 7.36385 1.21128 8.24083 2.08826C9.11782 2.96524 9.6105 4.15468 9.6105 5.39492Z" stroke="#ACA9B6" stroke-opacity="0.75" stroke-width="0.505549"/>
<path d="M7.84918 9.36998C7.87193 9.40031 7.8962 9.42913 7.9235 9.45718L10.843 12.3767C10.9852 12.519 11.1781 12.599 11.3793 12.5991C11.5805 12.5991 11.7734 12.5193 11.9157 12.3771C12.058 12.2349 12.138 12.042 12.138 11.8409C12.1381 11.6397 12.0583 11.4468 11.9161 11.3045L8.99653 8.38491C8.96941 8.35747 8.94026 8.33212 8.90932 8.30908C8.61184 8.7147 8.25437 9.07268 7.84918 9.37073V9.36998Z" fill="#ACA9B6" fill-opacity="0.75"/>
<path d="M8.22341 9.39961C8.48429 9.18482 8.72366 8.94515 8.93813 8.684L11.7373 11.4831C11.7373 11.4832 11.7373 11.4832 11.7373 11.4832C11.8321 11.5781 11.8853 11.7067 11.8853 11.8408C11.8852 11.9749 11.8319 12.1035 11.737 12.1983C11.6421 12.2931 11.5135 12.3463 11.3794 12.3463C11.2453 12.3462 11.1166 12.2929 11.0218 12.1981L11.0218 12.198L8.22341 9.39961Z" stroke="#ACA9B6" stroke-opacity="0.75" stroke-width="0.505549"/>
<path fill-rule="evenodd" clip-rule="evenodd" d="M4.93416 2.74072C5.03472 2.74072 5.13116 2.78067 5.20227 2.85178C5.27338 2.92288 5.31332 3.01932 5.31332 3.11988V5.01569H7.20913C7.30969 5.01569 7.40613 5.05564 7.47724 5.12675C7.54835 5.19785 7.58829 5.2943 7.58829 5.39486C7.58829 5.49542 7.54835 5.59186 7.47724 5.66296C7.40613 5.73407 7.30969 5.77402 7.20913 5.77402H5.31332V7.66983C5.31332 7.77039 5.27338 7.86683 5.20227 7.93793C5.13116 8.00904 5.03472 8.04899 4.93416 8.04899C4.8336 8.04899 4.73716 8.00904 4.66605 7.93793C4.59495 7.86683 4.555 7.77039 4.555 7.66983V5.77402H2.65919C2.55863 5.77402 2.46219 5.73407 2.39108 5.66296C2.31998 5.59186 2.28003 5.49542 2.28003 5.39486C2.28003 5.2943 2.31998 5.19785 2.39108 5.12675C2.46219 5.05564 2.55863 5.01569 2.65919 5.01569H4.555V3.11988C4.555 3.01932 4.59495 2.92288 4.66605 2.85178C4.73716 2.78067 4.8336 2.74072 4.93416 2.74072Z" fill="#ACA9B6" fill-opacity="0.75"/>
<path d="M5.06055 5.01569V5.26847H5.31332H7.20913C7.24265 5.26847 7.2748 5.28178 7.2985 5.30549C7.3222 5.32919 7.33552 5.36133 7.33552 5.39486C7.33552 5.42838 7.3222 5.46052 7.2985 5.48422C7.2748 5.50793 7.24265 5.52124 7.20913 5.52124H5.31332H5.06055V5.77402V7.66983C5.06055 7.70335 5.04723 7.73549 5.02353 7.7592C4.99983 7.7829 4.96768 7.79621 4.93416 7.79621C4.90064 7.79621 4.86849 7.7829 4.84479 7.7592C4.82109 7.73549 4.80777 7.70335 4.80777 7.66983V5.77402V5.52124H4.555H2.65919C2.62567 5.52124 2.59352 5.50793 2.56982 5.48422C2.54612 5.46052 2.5328 5.42838 2.5328 5.39486C2.5328 5.36134 2.54612 5.32919 2.56982 5.30549C2.59352 5.28178 2.62567 5.26847 2.65919 5.26847H4.555H4.80777V5.01569V3.11988C4.80777 3.08636 4.82109 3.05422 4.84479 3.03051C4.86849 3.00681 4.90064 2.9935 4.93416 2.9935C4.96768 2.9935 4.99983 3.00681 5.02353 3.03052C5.04723 3.05422 5.06055 3.08636 5.06055 3.11988V5.01569Z" stroke="#ACA9B6" stroke-opacity="0.75" stroke-width="0.505549"/>
</g>
<defs>
<clipPath id="clip0_489_2400">
<rect width="12.1332" height="12.1332" fill="white" transform="translate(0.00506592 0.46582)"/>
</clipPath>
</defs>
</svg>
