<svg width="13" height="13" viewBox="0 0 13 13" fill="none" xmlns="http://www.w3.org/2000/svg">
<g clip-path="url(#clip0_489_2435)">
<path d="M10.2424 1.22389C9.94071 1.22389 9.65139 1.34374 9.43807 1.55706C9.22475 1.77038 9.10491 2.0597 9.10491 2.36138C9.10491 2.66306 9.22475 2.95238 9.43807 3.1657C9.65139 3.37902 9.94071 3.49886 10.2424 3.49886C10.5441 3.49886 10.8334 3.37902 11.0467 3.1657C11.26 2.95238 11.3799 2.66306 11.3799 2.36138C11.3799 2.0597 11.26 1.77038 11.0467 1.55706C10.8334 1.34374 10.5441 1.22389 10.2424 1.22389ZM8.34658 2.36138C8.34653 1.91657 8.50288 1.48591 8.78828 1.14473C9.07368 0.80356 9.46996 0.573604 9.90779 0.495097C10.3456 0.416591 10.7971 0.494533 11.1833 0.715288C11.5694 0.936043 11.8657 1.28555 12.0202 1.70267C12.1747 2.11978 12.1776 2.57794 12.0284 2.99699C11.8792 3.41603 11.5874 3.76927 11.2041 3.99492C10.8208 4.22056 10.3703 4.30423 9.93152 4.23129C9.49273 4.15835 9.09356 3.93345 8.80385 3.59593L3.70943 5.9619C3.82655 6.33305 3.82655 6.73127 3.70943 7.10242L8.80385 9.46839C9.11009 9.11223 9.53765 8.88244 10.0037 8.82355C10.4697 8.76466 10.941 8.88087 11.3262 9.14966C11.7114 9.41845 11.9831 9.82067 12.0887 10.2784C12.1942 10.7361 12.1261 11.2167 11.8975 11.627C11.6689 12.0374 11.2961 12.3482 10.8514 12.4994C10.4066 12.6505 9.92164 12.6312 9.49035 12.4451C9.05905 12.259 8.71219 11.9195 8.51699 11.4923C8.32178 11.065 8.29214 10.5805 8.43379 10.1327L3.33937 7.76671C3.08718 8.06061 2.75103 8.27023 2.37613 8.36737C2.00124 8.4645 1.60559 8.44449 1.24241 8.31003C0.879227 8.17557 0.565936 7.93311 0.344682 7.61526C0.123427 7.29742 0.00482178 6.91943 0.00482178 6.53216C0.00482178 6.14489 0.123427 5.7669 0.344682 5.44906C0.565936 5.13121 0.879227 4.88875 1.24241 4.75429C1.60559 4.61982 2.00124 4.59982 2.37613 4.69695C2.75103 4.79409 3.08718 5.0037 3.33937 5.29761L8.43379 2.93164C8.3758 2.74711 8.34639 2.5548 8.34658 2.36138ZM1.90083 5.39467C1.59915 5.39467 1.30983 5.51452 1.09651 5.72784C0.883188 5.94116 0.763347 6.23048 0.763347 6.53216C0.763347 6.83384 0.883188 7.12316 1.09651 7.33648C1.30983 7.5498 1.59915 7.66964 1.90083 7.66964C2.20251 7.66964 2.49184 7.5498 2.70516 7.33648C2.91848 7.12316 3.03832 6.83384 3.03832 6.53216C3.03832 6.23048 2.91848 5.94116 2.70516 5.72784C2.49184 5.51452 2.20251 5.39467 1.90083 5.39467ZM10.2424 9.56545C9.94071 9.56545 9.65139 9.6853 9.43807 9.89861C9.22475 10.1119 9.10491 10.4013 9.10491 10.7029C9.10491 11.0046 9.22475 11.2939 9.43807 11.5073C9.65139 11.7206 9.94071 11.8404 10.2424 11.8404C10.5441 11.8404 10.8334 11.7206 11.0467 11.5073C11.26 11.2939 11.3799 11.0046 11.3799 10.7029C11.3799 10.4013 11.26 10.1119 11.0467 9.89861C10.8334 9.6853 10.5441 9.56545 10.2424 9.56545Z" fill="#ACA9B6" fill-opacity="0.75"/>
<path d="M8.59936 2.36163V2.36135C8.59931 1.97585 8.73481 1.6026 8.98216 1.30692C9.22951 1.01124 9.57295 0.811942 9.9524 0.743903C10.3319 0.675864 10.7231 0.743415 11.0578 0.934736C11.3925 1.12606 11.6492 1.42896 11.7831 1.79046C11.917 2.15196 11.9196 2.54904 11.7903 2.91221C11.661 3.27538 11.4081 3.58152 11.0759 3.77708C10.7437 3.97264 10.3533 4.04515 9.97297 3.98194C9.59269 3.91873 9.24674 3.72381 8.99566 3.43129L8.87098 3.28605L8.69738 3.36667L3.60296 5.73264L3.40155 5.82618L3.46838 6.03796C3.56987 6.35961 3.56987 6.70471 3.46838 7.02635L3.40155 7.23813L3.60296 7.33167L8.69738 9.69764L8.87083 9.7782L8.99552 9.63319C9.26093 9.32452 9.63148 9.12536 10.0354 9.07433C10.4392 9.02329 10.8477 9.12401 11.1815 9.35696C11.5154 9.58991 11.7509 9.9385 11.8423 10.3352C11.9338 10.7319 11.8748 11.1484 11.6767 11.504C11.4786 11.8596 11.1555 12.129 10.77 12.26C10.3846 12.391 9.96426 12.3743 9.59048 12.213C9.21669 12.0518 8.91608 11.7575 8.7469 11.3872C8.57772 11.0169 8.55203 10.597 8.6748 10.2089L8.74181 9.99703L8.54026 9.90342L3.44584 7.53745L3.27221 7.45681L3.14754 7.6021C2.92897 7.85682 2.63764 8.03849 2.31273 8.12267C1.98782 8.20686 1.64493 8.18952 1.33017 8.07298C1.01541 7.95645 0.743896 7.74632 0.552141 7.47085C0.360387 7.19538 0.257596 6.8678 0.257596 6.53216C0.257596 6.19652 0.360387 5.86894 0.552141 5.59347C0.743896 5.318 1.01541 5.10787 1.33017 4.99133C1.64493 4.8748 1.98782 4.85746 2.31273 4.94165C2.63764 5.02583 2.92897 5.2075 3.14754 5.46222L3.27221 5.6075L3.44584 5.52687L8.54026 3.1609L8.74144 3.06746L8.67494 2.85585C8.62468 2.69593 8.59919 2.52926 8.59936 2.36163ZM10.2424 0.971119C9.87367 0.971119 9.52005 1.11759 9.25933 1.37832C8.9986 1.63904 8.85213 1.99266 8.85213 2.36138C8.85213 2.7301 8.9986 3.08372 9.25933 3.34444C9.52005 3.60517 9.87367 3.75164 10.2424 3.75164C10.6111 3.75164 10.9647 3.60517 11.2255 3.34444C11.4862 3.08372 11.6327 2.7301 11.6327 2.36138C11.6327 1.99266 11.4862 1.63904 11.2255 1.37832C10.9647 1.11759 10.6111 0.971119 10.2424 0.971119ZM1.90083 5.1419C1.53211 5.1419 1.17849 5.28837 0.91777 5.5491C0.657046 5.80982 0.510572 6.16344 0.510572 6.53216C0.510572 6.90088 0.657045 7.2545 0.91777 7.51522C1.17849 7.77595 1.53211 7.92242 1.90083 7.92242C2.26955 7.92242 2.62317 7.77595 2.88389 7.51522C3.14462 7.2545 3.29109 6.90088 3.29109 6.53216C3.29109 6.16344 3.14462 5.80982 2.88389 5.5491C2.62317 5.28837 2.26955 5.1419 1.90083 5.1419ZM10.2424 9.31268C9.87367 9.31268 9.52005 9.45915 9.25933 9.71988C8.9986 9.9806 8.85213 10.3342 8.85213 10.7029C8.85213 11.0717 8.9986 11.4253 9.25933 11.686C9.52005 11.9467 9.87367 12.0932 10.2424 12.0932C10.6111 12.0932 10.9647 11.9467 11.2255 11.686C11.4862 11.4253 11.6327 11.0717 11.6327 10.7029C11.6327 10.3342 11.4862 9.9806 11.2255 9.71988C10.9647 9.45915 10.6111 9.31268 10.2424 9.31268Z" stroke="#ACA9B6" stroke-opacity="0.75" stroke-width="0.505549"/>
</g>
<defs>
<clipPath id="clip0_489_2435">
<rect width="12.1332" height="12.1332" fill="white" transform="translate(0.00506592 0.46582)"/>
</clipPath>
</defs>
</svg>
