<svg width="13" height="13" viewBox="0 0 13 13" fill="none" xmlns="http://www.w3.org/2000/svg">
<g clip-path="url(#clip0_489_2402)">
<path d="M0.384228 7.97314C0.484788 7.97314 0.581229 8.01309 0.652336 8.0842C0.723442 8.15531 0.76339 8.25175 0.76339 8.35231V10.2481C0.76339 10.4492 0.843284 10.6421 0.985497 10.7843C1.12771 10.9265 1.32059 11.0064 1.52171 11.0064H10.6216C10.8227 11.0064 11.0156 10.9265 11.1578 10.7843C11.3 10.6421 11.3799 10.4492 11.3799 10.2481V8.35231C11.3799 8.25175 11.4199 8.15531 11.491 8.0842C11.5621 8.01309 11.6585 7.97314 11.7591 7.97314C11.8596 7.97314 11.9561 8.01309 12.0272 8.0842C12.0983 8.15531 12.1382 8.25175 12.1382 8.35231V10.2481C12.1382 10.6504 11.9785 11.0361 11.694 11.3205C11.4096 11.605 11.0238 11.7648 10.6216 11.7648H1.52171C1.11947 11.7648 0.733708 11.605 0.449282 11.3205C0.164855 11.0361 0.00506592 10.6504 0.00506592 10.2481V8.35231C0.00506592 8.25175 0.0450132 8.15531 0.11612 8.0842C0.187226 8.01309 0.283668 7.97314 0.384228 7.97314V7.97314Z" fill="#ACA9B6" fill-opacity="0.75"/>
<path d="M0.384228 8.22592C0.417747 8.22592 0.449894 8.23923 0.473597 8.26294C0.497299 8.28664 0.510615 8.31879 0.510615 8.35231V10.2481C0.510615 10.5163 0.617141 10.7735 0.806759 10.9631C0.996377 11.1527 1.25355 11.2592 1.52171 11.2592H10.6216C10.8898 11.2592 11.1469 11.1527 11.3366 10.9631C11.5262 10.7735 11.6327 10.5163 11.6327 10.2481V8.35231C11.6327 8.31879 11.646 8.28664 11.6697 8.26294C11.6934 8.23923 11.7256 8.22592 11.7591 8.22592C11.7926 8.22592 11.8247 8.23923 11.8485 8.26294C11.8722 8.28664 11.8855 8.31879 11.8855 8.35231V10.2481C11.8855 10.5833 11.7523 10.9048 11.5153 11.1418C11.2783 11.3788 10.9568 11.512 10.6216 11.512H1.52171C1.18651 11.512 0.865042 11.3788 0.62802 11.1418C0.390998 10.9048 0.25784 10.5833 0.25784 10.2481V8.35231C0.25784 8.31879 0.271156 8.28664 0.294858 8.26294C0.318561 8.23923 0.350708 8.22592 0.384228 8.22592Z" stroke="#ACA9B6" stroke-opacity="0.75" stroke-width="0.505549"/>
<path d="M5.80322 9.45497C5.83844 9.49028 5.88028 9.51829 5.92634 9.5374C5.97241 9.55652 6.02179 9.56636 6.07166 9.56636C6.12154 9.56636 6.17092 9.55652 6.21698 9.5374C6.26305 9.51829 6.30489 9.49028 6.34011 9.45497L8.61508 7.17999C8.68628 7.1088 8.72628 7.01224 8.72628 6.91155C8.72628 6.81086 8.68628 6.7143 8.61508 6.6431C8.54389 6.57191 8.44732 6.53191 8.34664 6.53191C8.24595 6.53191 8.14939 6.57191 8.07819 6.6431L6.45083 8.27122V1.60328C6.45083 1.50272 6.41088 1.40628 6.33977 1.33517C6.26867 1.26407 6.17222 1.22412 6.07166 1.22412C5.9711 1.22412 5.87466 1.26407 5.80356 1.33517C5.73245 1.40628 5.6925 1.50272 5.6925 1.60328V8.27122L4.06514 6.6431C3.99394 6.57191 3.89738 6.53191 3.79669 6.53191C3.69601 6.53191 3.59944 6.57191 3.52825 6.6431C3.45705 6.7143 3.41705 6.81086 3.41705 6.91155C3.41705 7.01224 3.45705 7.1088 3.52825 7.17999L5.80322 9.45497V9.45497Z" fill="#ACA9B6" fill-opacity="0.75"/>
<path d="M6.16137 9.27623L6.16115 9.27645C6.14941 9.28822 6.13546 9.29756 6.1201 9.30393C6.10475 9.3103 6.08829 9.31358 6.07166 9.31358C6.05504 9.31358 6.03858 9.3103 6.02322 9.30393C6.00787 9.29756 5.99392 9.28822 5.98218 9.27645L5.80322 9.45497L5.98196 9.27623L3.70699 7.00126C3.68319 6.97746 3.66983 6.9452 3.66983 6.91155C3.66983 6.8779 3.68319 6.84563 3.70699 6.82184C3.73078 6.79805 3.76305 6.78468 3.79669 6.78468C3.83034 6.78468 3.86261 6.79805 3.8864 6.82184L5.51372 8.44992L5.94528 8.88168V8.27122V1.60328C5.94528 1.56976 5.95859 1.53762 5.9823 1.51391C6.006 1.49021 6.03814 1.4769 6.07166 1.4769C6.10519 1.4769 6.13733 1.49021 6.16103 1.51391C6.18474 1.53762 6.19805 1.56976 6.19805 1.60328V8.27122V8.88168L6.62961 8.44992L8.25693 6.82184C8.28072 6.79805 8.31299 6.78468 8.34664 6.78468C8.38028 6.78468 8.41255 6.79805 8.43634 6.82184C8.46013 6.84563 8.4735 6.8779 8.4735 6.91155C8.4735 6.9452 8.46013 6.97746 8.43634 7.00126L6.16137 9.27623Z" stroke="#ACA9B6" stroke-opacity="0.75" stroke-width="0.505549"/>
</g>
<defs>
<clipPath id="clip0_489_2402">
<rect width="12.1332" height="12.1332" fill="white" transform="translate(0.00506592 0.46582)"/>
</clipPath>
</defs>
</svg>
