<svg width="13" height="13" viewBox="0 0 13 13" fill="none" xmlns="http://www.w3.org/2000/svg">
<g clip-path="url(#clip0_489_2422)">
<path d="M6.07166 12.5324C6.46948 12.5324 6.85101 12.3744 7.13232 12.0931C7.41362 11.8117 7.57166 11.4302 7.57166 11.0324H4.57166C4.57166 11.4302 4.72969 11.8117 5.01099 12.0931C5.2923 12.3744 5.67383 12.5324 6.07166 12.5324ZM6.07166 1.97089L5.47391 2.09164C4.79588 2.22979 4.1864 2.59797 3.74864 3.13386C3.31089 3.66975 3.07173 4.34043 3.07166 5.03239C3.07166 5.50339 2.97116 6.68014 2.72741 7.83889C2.60741 8.41414 2.44541 9.01339 2.23016 9.53239H9.91315C9.69791 9.01339 9.53666 8.41489 9.4159 7.83889C9.17216 6.68014 9.07166 5.50339 9.07166 5.03239C9.07141 4.34056 8.83217 3.67006 8.39443 3.13432C7.95669 2.59859 7.34731 2.23052 6.6694 2.09239L6.07166 1.97014V1.97089ZM10.7367 9.53239C10.9039 9.86764 11.0974 10.1331 11.3217 10.2824H0.821655C1.04591 10.1331 1.23941 9.86764 1.40666 9.53239C2.08166 8.18239 2.32166 5.69239 2.32166 5.03239C2.32166 3.21739 3.61166 1.70239 5.32541 1.35664C5.31494 1.25236 5.32644 1.14704 5.35918 1.04747C5.39192 0.94791 5.44516 0.856312 5.51547 0.778588C5.58578 0.700864 5.67161 0.63874 5.7674 0.596223C5.8632 0.553705 5.96685 0.531738 6.07166 0.531738C6.17646 0.531738 6.28011 0.553705 6.37591 0.596223C6.4717 0.63874 6.55753 0.700864 6.62784 0.778588C6.69815 0.856312 6.75139 0.94791 6.78413 1.04747C6.81687 1.14704 6.82837 1.25236 6.81791 1.35664C7.66562 1.52907 8.42769 1.98916 8.97508 2.65902C9.52247 3.32888 9.82155 4.16733 9.82166 5.03239C9.82166 5.69239 10.0617 8.18239 10.7367 9.53239Z" fill="#ACA9B6" fill-opacity="0.75"/>
<path d="M10.739 10.0324C10.6564 9.91246 10.5815 9.78131 10.513 9.6442C10.1581 8.93438 9.92469 7.94382 9.77938 7.0644C9.63354 6.18183 9.57166 5.38009 9.57166 5.03243L10.739 10.0324ZM10.739 10.0324H1.40426C1.48686 9.91246 1.56185 9.78131 1.63026 9.6442C1.98517 8.93438 2.21862 7.94382 2.36394 7.0644C2.50977 6.1818 2.57166 5.38005 2.57166 5.03239C2.57166 3.33866 3.77554 1.92437 5.37485 1.60171L5.59677 1.55693L5.57416 1.33168C5.56718 1.26215 5.57485 1.19194 5.59667 1.12556C5.6185 1.05919 5.65399 0.99812 5.70087 0.946305C5.74774 0.894489 5.80496 0.853073 5.86882 0.824728L5.7674 0.596223L5.86882 0.824728C5.93269 0.796383 6.00178 0.781738 6.07166 0.781738C6.14153 0.781738 6.21062 0.796383 6.27449 0.824728C6.33835 0.853073 6.39557 0.894489 6.44245 0.946305C6.48932 0.99812 6.52481 1.05919 6.54664 1.12556C6.56846 1.19194 6.57613 1.26215 6.56916 1.33168L6.54658 1.55658L6.76808 1.60163C7.5593 1.76256 8.27058 2.192 8.7815 2.81721C9.29241 3.44242 9.57155 4.22498 9.57166 5.03239L10.739 10.0324ZM6.71932 1.84743L6.12175 1.72521L5.82166 1.66384V1.76635L5.4244 1.84659L5.42399 1.84668C4.68949 1.99633 4.02925 2.39518 3.55503 2.9757C3.08081 3.55623 2.82174 4.28277 2.82166 5.03237V5.03239C2.82166 5.48367 2.72349 6.64305 2.48276 7.78743L2.48267 7.78784C2.3644 8.35481 2.20625 8.93745 1.99923 9.43662L1.85582 9.78239H2.23016H9.91315H10.2875L10.1441 9.43662C9.93709 8.93754 9.77968 8.35568 9.66059 7.7876L9.66055 7.78743C9.41982 6.64305 9.32166 5.48367 9.32166 5.03239V5.03231C9.32139 4.28285 9.06223 3.55649 8.58802 2.97614C8.11382 2.39578 7.45369 1.99706 6.71932 1.84743ZM6.95554 11.9163C6.72112 12.1507 6.40318 12.2824 6.07166 12.2824C5.74014 12.2824 5.42219 12.1507 5.18777 11.9163C5.01318 11.7417 4.89556 11.5208 4.84691 11.2824H7.29641C7.24775 11.5208 7.13013 11.7417 6.95554 11.9163Z" stroke="#ACA9B6" stroke-opacity="0.75" stroke-width="0.5"/>
</g>
<defs>
<clipPath id="clip0_489_2422">
<rect width="12" height="12" fill="white" transform="translate(0.0716553 0.532227)"/>
</clipPath>
</defs>
</svg>
