<svg width="13" height="13" viewBox="0 0 13 13" fill="none" xmlns="http://www.w3.org/2000/svg">
<g clip-path="url(#clip0_489_2424)">
<path d="M6.07166 4.09766C5.75196 4.09766 5.43539 4.16063 5.14002 4.28297C4.84465 4.40532 4.57627 4.58464 4.35021 4.8107C4.12415 5.03677 3.94482 5.30515 3.82248 5.60051C3.70013 5.89588 3.63716 6.21245 3.63716 6.53216C3.63716 6.85186 3.70013 7.16843 3.82248 7.4638C3.94482 7.75917 4.12415 8.02754 4.35021 8.25361C4.57627 8.47967 4.84465 8.659 5.14002 8.78134C5.43539 8.90369 5.75196 8.96666 6.07166 8.96666C6.71733 8.96666 7.33656 8.71017 7.79311 8.25361C8.24967 7.79705 8.50616 7.17783 8.50616 6.53216C8.50616 5.88649 8.24967 5.26726 7.79311 4.8107C7.33656 4.35415 6.71733 4.09766 6.07166 4.09766ZM4.38716 6.53216C4.38716 6.0854 4.56463 5.65694 4.88054 5.34103C5.19644 5.02513 5.6249 4.84766 6.07166 4.84766C6.51842 4.84766 6.94688 5.02513 7.26278 5.34103C7.57869 5.65694 7.75616 6.0854 7.75616 6.53216C7.75616 6.97891 7.57869 7.40737 7.26278 7.72328C6.94688 8.03918 6.51842 8.21666 6.07166 8.21666C5.6249 8.21666 5.19644 8.03918 4.88054 7.72328C4.56463 7.40737 4.38716 6.97891 4.38716 6.53216Z" fill="#ACA9B6" fill-opacity="0.75"/>
<path d="M5.23569 4.51394C5.50073 4.40416 5.78479 4.34766 6.07166 4.34766C6.65103 4.34766 7.20666 4.57781 7.61634 4.98748C8.02601 5.39715 8.25616 5.95279 8.25616 6.53216C8.25616 7.11152 8.02601 7.66716 7.61634 8.07683C7.20666 8.4865 6.65103 8.71666 6.07166 8.71666C5.78479 8.71666 5.50073 8.66015 5.23569 8.55037C4.97065 8.44059 4.72984 8.27968 4.52699 8.07683C4.32414 7.87398 4.16323 7.63316 4.05345 7.36813C3.94367 7.10309 3.88716 6.81903 3.88716 6.53216C3.88716 6.24528 3.94367 5.96122 4.05345 5.69618C4.16323 5.43115 4.32414 5.19033 4.52699 4.98748C4.72984 4.78463 4.97065 4.62372 5.23569 4.51394ZM4.70376 5.16426C4.34097 5.52705 4.13716 6.01909 4.13716 6.53216C4.13716 7.04522 4.34097 7.53727 4.70376 7.90005C5.06655 8.26284 5.5586 8.46666 6.07166 8.46666C6.58472 8.46666 7.07677 8.26284 7.43956 7.90005C7.80235 7.53727 8.00616 7.04522 8.00616 6.53216C8.00616 6.01909 7.80235 5.52705 7.43956 5.16426C7.07677 4.80147 6.58472 4.59766 6.07166 4.59766C5.5586 4.59766 5.06655 4.80147 4.70376 5.16426Z" stroke="#ACA9B6" stroke-opacity="0.75" stroke-width="0.5"/>
<mask id="path-3-inside-1_489_2424" fill="white">
<path d="M7.41852 1.5391C7.02327 0.196602 5.11977 0.196602 4.72452 1.5391L4.65402 1.77835C4.62642 1.87207 4.5782 1.95842 4.51289 2.03107C4.44758 2.10373 4.36683 2.16084 4.27658 2.19824C4.18633 2.23564 4.08885 2.25236 3.99129 2.24719C3.89373 2.24202 3.79857 2.21508 3.71277 2.16835L3.49377 2.04835C2.26377 1.37935 0.919024 2.72485 1.58877 3.9541L1.70802 4.1731C1.75475 4.2589 1.78169 4.35406 1.78686 4.45162C1.79203 4.54918 1.77531 4.64665 1.73791 4.73691C1.70052 4.82716 1.6434 4.9079 1.57074 4.97321C1.49809 5.03852 1.41174 5.08675 1.31802 5.11435L1.07877 5.18485C-0.263726 5.5801 -0.263726 7.4836 1.07877 7.87885L1.31802 7.94935C1.41174 7.97695 1.49809 8.02518 1.57074 8.09049C1.6434 8.1558 1.70052 8.23654 1.73791 8.3268C1.77531 8.41705 1.79203 8.51453 1.78686 8.61209C1.78169 8.70964 1.75475 8.80481 1.70802 8.8906L1.58802 9.1096C0.919024 10.3396 2.26377 11.6851 3.49377 11.0146L3.71277 10.8954C3.79857 10.8486 3.89373 10.8217 3.99129 10.8165C4.08885 10.8113 4.18633 10.8281 4.27658 10.8655C4.36683 10.9029 4.44758 10.96 4.51289 11.0326C4.5782 11.1053 4.62642 11.1916 4.65402 11.2854L4.72452 11.5246C5.11977 12.8671 7.02327 12.8671 7.41852 11.5246L7.48903 11.2854C7.51663 11.1916 7.56485 11.1053 7.63016 11.0326C7.69547 10.96 7.77621 10.9029 7.86647 10.8655C7.95672 10.8281 8.0542 10.8113 8.15176 10.8165C8.24932 10.8217 8.34448 10.8486 8.43027 10.8954L8.64927 11.0154C9.87927 11.6851 11.2248 10.3389 10.5543 9.1096L10.435 8.8906C10.3883 8.80481 10.3614 8.70964 10.3562 8.61209C10.351 8.51453 10.3677 8.41705 10.4051 8.3268C10.4425 8.23654 10.4997 8.1558 10.5723 8.09049C10.645 8.02518 10.7313 7.97695 10.825 7.94935L11.0643 7.87885C12.4068 7.4836 12.4068 5.5801 11.0643 5.18485L10.825 5.11435C10.7313 5.08675 10.645 5.03852 10.5723 4.97321C10.4997 4.9079 10.4425 4.82716 10.4051 4.73691C10.3677 4.64665 10.351 4.54918 10.3562 4.45162C10.3614 4.35406 10.3883 4.2589 10.435 4.1731L10.555 3.9541C11.2248 2.7241 9.87852 1.37935 8.64927 2.0491L8.43027 2.16835C8.34448 2.21508 8.24932 2.24202 8.15176 2.24719C8.0542 2.25236 7.95672 2.23564 7.86647 2.19824C7.77621 2.16084 7.69547 2.10373 7.63016 2.03107C7.56485 1.95842 7.51663 1.87207 7.48903 1.77835L7.41852 1.5391ZM5.44377 1.75135C5.62827 1.1251 6.51477 1.1251 6.69927 1.75135L6.76977 1.9906C6.82904 2.19167 6.93255 2.37692 7.07272 2.53278C7.21289 2.68863 7.38616 2.81115 7.57983 2.89134C7.7735 2.97152 7.98267 3.00735 8.19199 2.99619C8.40131 2.98504 8.60547 2.92717 8.78952 2.82685L9.00777 2.70685C9.58077 2.3956 10.2078 3.02185 9.89577 3.5956L9.77652 3.8146C9.67635 3.99867 9.61863 4.20282 9.6076 4.41209C9.59656 4.62136 9.63248 4.83045 9.71274 5.02404C9.79299 5.21763 9.91554 5.3908 10.0714 5.53088C10.2273 5.67096 10.4125 5.7744 10.6135 5.8336L10.852 5.9041C11.4783 6.0886 11.4783 6.9751 10.852 7.1596L10.6128 7.2301C10.4117 7.28937 10.2265 7.39288 10.0706 7.53305C9.91474 7.67321 9.79223 7.84649 9.71204 8.04016C9.63185 8.23383 9.59602 8.44299 9.60718 8.65231C9.61834 8.86163 9.6762 9.0658 9.77652 9.24985L9.89652 9.4681C10.2078 10.0411 9.58152 10.6681 9.00777 10.3561L8.78952 10.2369C8.60542 10.1365 8.40121 10.0787 8.19185 10.0676C7.98249 10.0565 7.77329 10.0924 7.57961 10.1726C7.38593 10.2529 7.21267 10.3755 7.07254 10.5314C6.9324 10.6874 6.82895 10.8727 6.76977 11.0739L6.69927 11.3124C6.51477 11.9386 5.62827 11.9386 5.44377 11.3124L5.37327 11.0731C5.31398 10.8721 5.21049 10.687 5.07037 10.5312C4.93026 10.3754 4.75707 10.253 4.56349 10.1728C4.36992 10.0926 4.16086 10.0568 3.95163 10.0678C3.7424 10.0789 3.5383 10.1367 3.35427 10.2369L3.13527 10.3569C2.56227 10.6681 1.93527 10.0419 2.24727 9.4681L2.36652 9.24985C2.46699 9.06577 2.52496 8.86154 2.53619 8.65213C2.54743 8.44272 2.51163 8.23345 2.43143 8.03968C2.35123 7.84591 2.22867 7.67256 2.07273 7.53234C1.9168 7.39212 1.73144 7.28859 1.53027 7.22935L1.29102 7.15885C0.664774 6.97435 0.664774 6.08785 1.29102 5.90335L1.53027 5.83285C1.73113 5.77353 1.91618 5.67006 2.07188 5.52999C2.22758 5.38993 2.35 5.21682 2.43016 5.02334C2.51033 4.82986 2.54622 4.62091 2.53521 4.41177C2.5242 4.20263 2.46657 3.99859 2.36652 3.8146L2.24652 3.5956C1.93527 3.0226 2.56152 2.3956 3.13527 2.7076L3.35427 2.82685C3.5383 2.92703 3.7424 2.98478 3.95163 2.99587C4.16086 3.00695 4.36992 2.97109 4.56349 2.89091C4.75707 2.81074 4.93026 2.68827 5.07037 2.53249C5.21049 2.37671 5.31398 2.19156 5.37327 1.9906L5.44377 1.75135Z"/>
</mask>
<path d="M7.41852 1.5391C7.02327 0.196602 5.11977 0.196602 4.72452 1.5391L4.65402 1.77835C4.62642 1.87207 4.5782 1.95842 4.51289 2.03107C4.44758 2.10373 4.36683 2.16084 4.27658 2.19824C4.18633 2.23564 4.08885 2.25236 3.99129 2.24719C3.89373 2.24202 3.79857 2.21508 3.71277 2.16835L3.49377 2.04835C2.26377 1.37935 0.919024 2.72485 1.58877 3.9541L1.70802 4.1731C1.75475 4.2589 1.78169 4.35406 1.78686 4.45162C1.79203 4.54918 1.77531 4.64665 1.73791 4.73691C1.70052 4.82716 1.6434 4.9079 1.57074 4.97321C1.49809 5.03852 1.41174 5.08675 1.31802 5.11435L1.07877 5.18485C-0.263726 5.5801 -0.263726 7.4836 1.07877 7.87885L1.31802 7.94935C1.41174 7.97695 1.49809 8.02518 1.57074 8.09049C1.6434 8.1558 1.70052 8.23654 1.73791 8.3268C1.77531 8.41705 1.79203 8.51453 1.78686 8.61209C1.78169 8.70964 1.75475 8.80481 1.70802 8.8906L1.58802 9.1096C0.919024 10.3396 2.26377 11.6851 3.49377 11.0146L3.71277 10.8954C3.79857 10.8486 3.89373 10.8217 3.99129 10.8165C4.08885 10.8113 4.18633 10.8281 4.27658 10.8655C4.36683 10.9029 4.44758 10.96 4.51289 11.0326C4.5782 11.1053 4.62642 11.1916 4.65402 11.2854L4.72452 11.5246C5.11977 12.8671 7.02327 12.8671 7.41852 11.5246L7.48903 11.2854C7.51663 11.1916 7.56485 11.1053 7.63016 11.0326C7.69547 10.96 7.77621 10.9029 7.86647 10.8655C7.95672 10.8281 8.0542 10.8113 8.15176 10.8165C8.24932 10.8217 8.34448 10.8486 8.43027 10.8954L8.64927 11.0154C9.87927 11.6851 11.2248 10.3389 10.5543 9.1096L10.435 8.8906C10.3883 8.80481 10.3614 8.70964 10.3562 8.61209C10.351 8.51453 10.3677 8.41705 10.4051 8.3268C10.4425 8.23654 10.4997 8.1558 10.5723 8.09049C10.645 8.02518 10.7313 7.97695 10.825 7.94935L11.0643 7.87885C12.4068 7.4836 12.4068 5.5801 11.0643 5.18485L10.825 5.11435C10.7313 5.08675 10.645 5.03852 10.5723 4.97321C10.4997 4.9079 10.4425 4.82716 10.4051 4.73691C10.3677 4.64665 10.351 4.54918 10.3562 4.45162C10.3614 4.35406 10.3883 4.2589 10.435 4.1731L10.555 3.9541C11.2248 2.7241 9.87852 1.37935 8.64927 2.0491L8.43027 2.16835C8.34448 2.21508 8.24932 2.24202 8.15176 2.24719C8.0542 2.25236 7.95672 2.23564 7.86647 2.19824C7.77621 2.16084 7.69547 2.10373 7.63016 2.03107C7.56485 1.95842 7.51663 1.87207 7.48903 1.77835L7.41852 1.5391ZM5.44377 1.75135C5.62827 1.1251 6.51477 1.1251 6.69927 1.75135L6.76977 1.9906C6.82904 2.19167 6.93255 2.37692 7.07272 2.53278C7.21289 2.68863 7.38616 2.81115 7.57983 2.89134C7.7735 2.97152 7.98267 3.00735 8.19199 2.99619C8.40131 2.98504 8.60547 2.92717 8.78952 2.82685L9.00777 2.70685C9.58077 2.3956 10.2078 3.02185 9.89577 3.5956L9.77652 3.8146C9.67635 3.99867 9.61863 4.20282 9.6076 4.41209C9.59656 4.62136 9.63248 4.83045 9.71274 5.02404C9.79299 5.21763 9.91554 5.3908 10.0714 5.53088C10.2273 5.67096 10.4125 5.7744 10.6135 5.8336L10.852 5.9041C11.4783 6.0886 11.4783 6.9751 10.852 7.1596L10.6128 7.2301C10.4117 7.28937 10.2265 7.39288 10.0706 7.53305C9.91474 7.67321 9.79223 7.84649 9.71204 8.04016C9.63185 8.23383 9.59602 8.44299 9.60718 8.65231C9.61834 8.86163 9.6762 9.0658 9.77652 9.24985L9.89652 9.4681C10.2078 10.0411 9.58152 10.6681 9.00777 10.3561L8.78952 10.2369C8.60542 10.1365 8.40121 10.0787 8.19185 10.0676C7.98249 10.0565 7.77329 10.0924 7.57961 10.1726C7.38593 10.2529 7.21267 10.3755 7.07254 10.5314C6.9324 10.6874 6.82895 10.8727 6.76977 11.0739L6.69927 11.3124C6.51477 11.9386 5.62827 11.9386 5.44377 11.3124L5.37327 11.0731C5.31398 10.8721 5.21049 10.687 5.07037 10.5312C4.93026 10.3754 4.75707 10.253 4.56349 10.1728C4.36992 10.0926 4.16086 10.0568 3.95163 10.0678C3.7424 10.0789 3.5383 10.1367 3.35427 10.2369L3.13527 10.3569C2.56227 10.6681 1.93527 10.0419 2.24727 9.4681L2.36652 9.24985C2.46699 9.06577 2.52496 8.86154 2.53619 8.65213C2.54743 8.44272 2.51163 8.23345 2.43143 8.03968C2.35123 7.84591 2.22867 7.67256 2.07273 7.53234C1.9168 7.39212 1.73144 7.28859 1.53027 7.22935L1.29102 7.15885C0.664774 6.97435 0.664774 6.08785 1.29102 5.90335L1.53027 5.83285C1.73113 5.77353 1.91618 5.67006 2.07188 5.52999C2.22758 5.38993 2.35 5.21682 2.43016 5.02334C2.51033 4.82986 2.54622 4.62091 2.53521 4.41177C2.5242 4.20263 2.46657 3.99859 2.36652 3.8146L2.24652 3.5956C1.93527 3.0226 2.56152 2.3956 3.13527 2.7076L3.35427 2.82685C3.5383 2.92703 3.7424 2.98478 3.95163 2.99587C4.16086 3.00695 4.36992 2.97109 4.56349 2.89091C4.75707 2.81074 4.93026 2.68827 5.07037 2.53249C5.21049 2.37671 5.31398 2.19156 5.37327 1.9906L5.44377 1.75135Z" fill="#ACA9B6" fill-opacity="0.75" stroke="#ACA9B6" stroke-opacity="0.75" mask="url(#path-3-inside-1_489_2424)"/>
</g>
<defs>
<clipPath id="clip0_489_2424">
<rect width="12" height="12" fill="white" transform="translate(0.0716553 0.532227)"/>
</clipPath>
</defs>
</svg>
