<svg width="9" height="15" viewBox="0 0 9 15" fill="none" xmlns="http://www.w3.org/2000/svg">
<path d="M0.00456093 4.22929C0.00250751 4.27773 0.0103848 4.32608 0.027708 4.37137C0.0450313 4.41665 0.0714343 4.45791 0.105294 4.49262C0.139154 4.52732 0.179754 4.55473 0.224599 4.57316C0.269443 4.59159 0.317584 4.60066 0.36606 4.59979H1.60356C1.81056 4.59979 1.97556 4.43029 2.00256 4.22479C2.13756 3.24079 2.81256 2.52379 4.01556 2.52379C5.04456 2.52379 5.98656 3.03829 5.98656 4.27579C5.98656 5.22829 5.42556 5.66629 4.53906 6.33229C3.52956 7.06579 2.73006 7.92229 2.78706 9.31279L2.79156 9.63829C2.79314 9.73671 2.83334 9.83055 2.90349 9.89959C2.97365 9.96862 3.06814 10.0073 3.16656 10.0073H4.38306C4.48252 10.0073 4.5779 9.96778 4.64823 9.89746C4.71855 9.82713 4.75806 9.73175 4.75806 9.63229V9.47479C4.75806 8.39779 5.16756 8.08429 6.27306 7.24579C7.18656 6.55129 8.13906 5.78029 8.13906 4.16179C8.13906 1.89529 6.22506 0.800293 4.12956 0.800293C2.22906 0.800293 0.147061 1.68529 0.00456093 4.22929ZM2.34006 12.8738C2.34006 13.6733 2.97756 14.2643 3.85506 14.2643C4.76856 14.2643 5.39706 13.6733 5.39706 12.8738C5.39706 12.0458 4.76706 11.4638 3.85356 11.4638C2.97756 11.4638 2.34006 12.0458 2.34006 12.8738Z" fill="#ACA9B6" fill-opacity="0.75"/>
</svg>
