<svg width="13" height="13" viewBox="0 0 13 13" fill="none" xmlns="http://www.w3.org/2000/svg">
<g clip-path="url(#clip0_491_2534)">
<path fill-rule="evenodd" clip-rule="evenodd" d="M3.82166 9.15723C3.82166 9.05777 3.86116 8.96239 3.93149 8.89206C4.00182 8.82173 4.0972 8.78223 4.19666 8.78223H10.9467C11.0461 8.78223 11.1415 8.82173 11.2118 8.89206C11.2821 8.96239 11.3217 9.05777 11.3217 9.15723C11.3217 9.25668 11.2821 9.35207 11.2118 9.42239C11.1415 9.49272 11.0461 9.53223 10.9467 9.53223H4.19666C4.0972 9.53223 4.00182 9.49272 3.93149 9.42239C3.86116 9.35207 3.82166 9.25668 3.82166 9.15723ZM3.82166 6.15723C3.82166 6.05777 3.86116 5.96239 3.93149 5.89206C4.00182 5.82174 4.0972 5.78223 4.19666 5.78223H10.9467C11.0461 5.78223 11.1415 5.82174 11.2118 5.89206C11.2821 5.96239 11.3217 6.05777 11.3217 6.15723C11.3217 6.25668 11.2821 6.35207 11.2118 6.42239C11.1415 6.49272 11.0461 6.53223 10.9467 6.53223H4.19666C4.0972 6.53223 4.00182 6.49272 3.93149 6.42239C3.86116 6.35207 3.82166 6.25668 3.82166 6.15723ZM3.82166 3.15723C3.82166 3.05777 3.86116 2.96239 3.93149 2.89206C4.00182 2.82174 4.0972 2.78223 4.19666 2.78223H10.9467C11.0461 2.78223 11.1415 2.82174 11.2118 2.89206C11.2821 2.96239 11.3217 3.05777 11.3217 3.15723C11.3217 3.25668 11.2821 3.35207 11.2118 3.42239C11.1415 3.49272 11.0461 3.53223 10.9467 3.53223H4.19666C4.0972 3.53223 4.00182 3.49272 3.93149 3.42239C3.86116 3.35207 3.82166 3.25668 3.82166 3.15723Z" fill="#B1AFBA"/>
<path d="M1.35641 9.43096V9.07546H1.57166C1.73441 9.07546 1.84391 8.97271 1.84391 8.83771C1.84391 8.69896 1.72541 8.60522 1.57316 8.60522C1.40591 8.60522 1.29791 8.71921 1.29341 8.83771H0.850905C0.862905 8.48746 1.13066 8.24746 1.59041 8.24746C2.03141 8.24596 2.30591 8.46571 2.30816 8.77471C2.30958 8.8807 2.27323 8.98372 2.20562 9.06535C2.13801 9.14698 2.04355 9.20188 1.93916 9.22021V9.24496C2.05751 9.25379 2.16791 9.30791 2.24739 9.39605C2.32688 9.48419 2.36932 9.59958 2.36591 9.71821C2.36816 10.118 1.98941 10.3182 1.57766 10.3182C1.08566 10.3182 0.827655 10.0407 0.821655 9.72271H1.25816C1.26416 9.85622 1.39766 9.95221 1.57466 9.95446C1.76516 9.95446 1.89266 9.84571 1.89116 9.69196C1.88966 9.54571 1.77491 9.43096 1.58066 9.43096H1.35566H1.35641ZM1.35341 5.90671H0.900405V5.88046C0.900405 5.57446 1.12166 5.24746 1.61891 5.24746C2.05616 5.24746 2.33891 5.49196 2.33891 5.81447C2.33891 6.10622 2.14616 6.27721 1.98191 6.45046L1.57916 6.87947V6.90196H2.36966V7.28221H0.928905V6.98596L1.64666 6.24346C1.75016 6.13696 1.86641 6.01546 1.86641 5.86246C1.86641 5.72746 1.75616 5.62246 1.60991 5.62246C1.57614 5.62123 1.54248 5.62691 1.511 5.63917C1.47952 5.65144 1.45088 5.67001 1.42685 5.69376C1.40282 5.71751 1.38391 5.74593 1.37128 5.77726C1.35865 5.8086 1.35256 5.84219 1.35341 5.87596V5.90671ZM1.99466 4.28221H1.51841V2.72521H1.49516L1.04666 3.04021V2.61496L1.51841 2.28271H1.99466V4.28221Z" fill="#B1AFBA"/>
</g>
<defs>
<clipPath id="clip0_491_2534">
<rect width="12" height="12" fill="white" transform="translate(0.0716553 0.532227)"/>
</clipPath>
</defs>
</svg>
