<svg width="13" height="13" viewBox="0 0 13 13" fill="none" xmlns="http://www.w3.org/2000/svg">
<g clip-path="url(#clip0_491_2541)">
<path d="M0.821655 2.40723C0.821655 2.10886 0.940182 1.82271 1.15116 1.61173C1.36214 1.40075 1.64829 1.28223 1.94666 1.28223H4.19666C4.49502 1.28223 4.78117 1.40075 4.99215 1.61173C5.20313 1.82271 5.32166 2.10886 5.32166 2.40723V4.65723C5.32166 4.9556 5.20313 5.24174 4.99215 5.45272C4.78117 5.6637 4.49502 5.78223 4.19666 5.78223H1.94666C1.64829 5.78223 1.36214 5.6637 1.15116 5.45272C0.940182 5.24174 0.821655 4.9556 0.821655 4.65723V2.40723ZM1.94666 2.03223C1.8472 2.03223 1.75182 2.07174 1.68149 2.14206C1.61116 2.21239 1.57166 2.30777 1.57166 2.40723V4.65723C1.57166 4.75668 1.61116 4.85207 1.68149 4.92239C1.75182 4.99272 1.8472 5.03223 1.94666 5.03223H4.19666C4.29611 5.03223 4.39149 4.99272 4.46182 4.92239C4.53215 4.85207 4.57166 4.75668 4.57166 4.65723V2.40723C4.57166 2.30777 4.53215 2.21239 4.46182 2.14206C4.39149 2.07174 4.29611 2.03223 4.19666 2.03223H1.94666ZM6.82166 2.40723C6.82166 2.10886 6.94018 1.82271 7.15116 1.61173C7.36214 1.40075 7.64829 1.28223 7.94666 1.28223H10.1967C10.495 1.28223 10.7812 1.40075 10.9922 1.61173C11.2031 1.82271 11.3217 2.10886 11.3217 2.40723V4.65723C11.3217 4.9556 11.2031 5.24174 10.9922 5.45272C10.7812 5.6637 10.495 5.78223 10.1967 5.78223H7.94666C7.64829 5.78223 7.36214 5.6637 7.15116 5.45272C6.94018 5.24174 6.82166 4.9556 6.82166 4.65723V2.40723ZM7.94666 2.03223C7.8472 2.03223 7.75182 2.07174 7.68149 2.14206C7.61116 2.21239 7.57166 2.30777 7.57166 2.40723V4.65723C7.57166 4.75668 7.61116 4.85207 7.68149 4.92239C7.75182 4.99272 7.8472 5.03223 7.94666 5.03223H10.1967C10.2961 5.03223 10.3915 4.99272 10.4618 4.92239C10.5321 4.85207 10.5717 4.75668 10.5717 4.65723V2.40723C10.5717 2.30777 10.5321 2.21239 10.4618 2.14206C10.3915 2.07174 10.2961 2.03223 10.1967 2.03223H7.94666ZM0.821655 8.40723C0.821655 8.10886 0.940182 7.82271 1.15116 7.61173C1.36214 7.40075 1.64829 7.28223 1.94666 7.28223H4.19666C4.49502 7.28223 4.78117 7.40075 4.99215 7.61173C5.20313 7.82271 5.32166 8.10886 5.32166 8.40723V10.6572C5.32166 10.9556 5.20313 11.2417 4.99215 11.4527C4.78117 11.6637 4.49502 11.7822 4.19666 11.7822H1.94666C1.64829 11.7822 1.36214 11.6637 1.15116 11.4527C0.940182 11.2417 0.821655 10.9556 0.821655 10.6572V8.40723ZM1.94666 8.03223C1.8472 8.03223 1.75182 8.07173 1.68149 8.14206C1.61116 8.21239 1.57166 8.30777 1.57166 8.40723V10.6572C1.57166 10.7567 1.61116 10.8521 1.68149 10.9224C1.75182 10.9927 1.8472 11.0322 1.94666 11.0322H4.19666C4.29611 11.0322 4.39149 10.9927 4.46182 10.9224C4.53215 10.8521 4.57166 10.7567 4.57166 10.6572V8.40723C4.57166 8.30777 4.53215 8.21239 4.46182 8.14206C4.39149 8.07173 4.29611 8.03223 4.19666 8.03223H1.94666ZM6.82166 8.40723C6.82166 8.10886 6.94018 7.82271 7.15116 7.61173C7.36214 7.40075 7.64829 7.28223 7.94666 7.28223H10.1967C10.495 7.28223 10.7812 7.40075 10.9922 7.61173C11.2031 7.82271 11.3217 8.10886 11.3217 8.40723V10.6572C11.3217 10.9556 11.2031 11.2417 10.9922 11.4527C10.7812 11.6637 10.495 11.7822 10.1967 11.7822H7.94666C7.64829 11.7822 7.36214 11.6637 7.15116 11.4527C6.94018 11.2417 6.82166 10.9556 6.82166 10.6572V8.40723ZM7.94666 8.03223C7.8472 8.03223 7.75182 8.07173 7.68149 8.14206C7.61116 8.21239 7.57166 8.30777 7.57166 8.40723V10.6572C7.57166 10.7567 7.61116 10.8521 7.68149 10.9224C7.75182 10.9927 7.8472 11.0322 7.94666 11.0322H10.1967C10.2961 11.0322 10.3915 10.9927 10.4618 10.9224C10.5321 10.8521 10.5717 10.7567 10.5717 10.6572V8.40723C10.5717 8.30777 10.5321 8.21239 10.4618 8.14206C10.3915 8.07173 10.2961 8.03223 10.1967 8.03223H7.94666Z" fill="#B1AFBA"/>
</g>
<defs>
<clipPath id="clip0_491_2541">
<rect width="12" height="12" fill="white" transform="translate(0.0716553 0.532227)"/>
</clipPath>
</defs>
</svg>
