<svg width="12" height="13" viewBox="0 0 12 13" fill="none" xmlns="http://www.w3.org/2000/svg">
<path d="M6.07166 3.451C6.34034 3.451 6.55815 3.23319 6.55815 2.96451C6.55815 2.69583 6.34034 2.47803 6.07166 2.47803C5.80298 2.47803 5.58517 2.69583 5.58517 2.96451C5.58517 3.23319 5.80298 3.451 6.07166 3.451Z" fill="#ACA9B6" fill-opacity="0.75" stroke="#ACA9B6" stroke-opacity="0.75" stroke-width="0.972973" stroke-linecap="round" stroke-linejoin="round"/>
<path d="M6.07166 7.01887C6.34034 7.01887 6.55815 6.80106 6.55815 6.53238C6.55815 6.26371 6.34034 6.0459 6.07166 6.0459C5.80298 6.0459 5.58517 6.26371 5.58517 6.53238C5.58517 6.80106 5.80298 7.01887 6.07166 7.01887Z" fill="#ACA9B6" fill-opacity="0.75" stroke="#ACA9B6" stroke-opacity="0.75" stroke-width="0.972973" stroke-linecap="round" stroke-linejoin="round"/>
<path d="M6.07166 10.5863C6.34034 10.5863 6.55815 10.3684 6.55815 10.0998C6.55815 9.83109 6.34034 9.61328 6.07166 9.61328C5.80298 9.61328 5.58517 9.83109 5.58517 10.0998C5.58517 10.3684 5.80298 10.5863 6.07166 10.5863Z" fill="#ACA9B6" fill-opacity="0.75" stroke="#ACA9B6" stroke-opacity="0.75" stroke-width="0.972973" stroke-linecap="round" stroke-linejoin="round"/>
</svg>
