<svg width="19" height="11" viewBox="0 0 19 11" fill="none" xmlns="http://www.w3.org/2000/svg">
<path d="M6.43188 10.25C6.43188 10.0511 6.5109 9.86032 6.65156 9.71967C6.79221 9.57902 6.98297 9.5 7.18188 9.5H11.6819C11.8808 9.5 12.0716 9.57902 12.2122 9.71967C12.3529 9.86032 12.4319 10.0511 12.4319 10.25C12.4319 10.4489 12.3529 10.6397 12.2122 10.7803C12.0716 10.921 11.8808 11 11.6819 11H7.18188C6.98297 11 6.79221 10.921 6.65156 10.7803C6.5109 10.6397 6.43188 10.4489 6.43188 10.25ZM3.43188 5.75C3.43188 5.55109 3.5109 5.36032 3.65155 5.21967C3.79221 5.07902 3.98297 5 4.18188 5H14.6819C14.8808 5 15.0716 5.07902 15.2122 5.21967C15.3529 5.36032 15.4319 5.55109 15.4319 5.75C15.4319 5.94891 15.3529 6.13968 15.2122 6.28033C15.0716 6.42098 14.8808 6.5 14.6819 6.5H4.18188C3.98297 6.5 3.79221 6.42098 3.65155 6.28033C3.5109 6.13968 3.43188 5.94891 3.43188 5.75ZM0.431885 1.25C0.431885 1.05109 0.510903 0.860322 0.651555 0.71967C0.792207 0.579018 0.982972 0.5 1.18188 0.5H17.6819C17.8808 0.5 18.0716 0.579018 18.2122 0.71967C18.3529 0.860322 18.4319 1.05109 18.4319 1.25C18.4319 1.44891 18.3529 1.63968 18.2122 1.78033C18.0716 1.92098 17.8808 2 17.6819 2H1.18188C0.982972 2 0.792207 1.92098 0.651555 1.78033C0.510903 1.63968 0.431885 1.44891 0.431885 1.25Z" fill="#ACA9B6" fill-opacity="0.75"/>
</svg>
