<svg width="13" height="13" viewBox="0 0 13 13" fill="none" xmlns="http://www.w3.org/2000/svg">
<path fill-rule="evenodd" clip-rule="evenodd" d="M3.6463 2.04376C3.68114 2.00884 3.72252 1.98113 3.76808 1.96223C3.81364 1.94332 3.86248 1.93359 3.9118 1.93359C3.96113 1.93359 4.00997 1.94332 4.05553 1.96223C4.10109 1.98113 4.14247 2.00884 4.1773 2.04376L8.6773 6.54376C8.71223 6.5786 8.73993 6.61998 8.75884 6.66554C8.77774 6.7111 8.78747 6.75994 8.78747 6.80926C8.78747 6.85859 8.77774 6.90743 8.75884 6.95299C8.73993 6.99855 8.71223 7.03993 8.6773 7.07476L4.1773 11.5748C4.10689 11.6452 4.01138 11.6847 3.9118 11.6847C3.81222 11.6847 3.71672 11.6452 3.6463 11.5748C3.57589 11.5043 3.53633 11.4088 3.53633 11.3093C3.53633 11.2097 3.57589 11.1142 3.6463 11.0438L7.88155 6.80926L3.6463 2.57476C3.61138 2.53993 3.58367 2.49855 3.56477 2.45299C3.54586 2.40743 3.53613 2.35859 3.53613 2.30926C3.53613 2.25994 3.54586 2.2111 3.56477 2.16554C3.58367 2.11998 3.61138 2.0786 3.6463 2.04376Z" fill="#ACA9B6"/>
</svg>
