<svg width="24" height="25" viewBox="0 0 24 25" fill="none" xmlns="http://www.w3.org/2000/svg">
<g clip-path="url(#clip0_486_299)">
<path d="M5.25 0.312988C5.44891 0.312988 5.63968 0.392006 5.78033 0.532658C5.92098 0.67331 6 0.864076 6 1.06299V1.81299H18V1.06299C18 0.864076 18.079 0.67331 18.2197 0.532658C18.3603 0.392006 18.5511 0.312988 18.75 0.312988C18.9489 0.312988 19.1397 0.392006 19.2803 0.532658C19.421 0.67331 19.5 0.864076 19.5 1.06299V1.81299H21C21.7956 1.81299 22.5587 2.12906 23.1213 2.69167C23.6839 3.25428 24 4.01734 24 4.81299V21.313C24 22.1086 23.6839 22.8717 23.1213 23.4343C22.5587 23.9969 21.7956 24.313 21 24.313H3C2.20435 24.313 1.44129 23.9969 0.87868 23.4343C0.316071 22.8717 0 22.1086 0 21.313V4.81299C0 4.01734 0.316071 3.25428 0.87868 2.69167C1.44129 2.12906 2.20435 1.81299 3 1.81299H4.5V1.06299C4.5 0.864076 4.57902 0.67331 4.71967 0.532658C4.86032 0.392006 5.05109 0.312988 5.25 0.312988V0.312988ZM1.5 6.31299V21.313C1.5 21.7108 1.65804 22.0923 1.93934 22.3736C2.22064 22.655 2.60218 22.813 3 22.813H21C21.3978 22.813 21.7794 22.655 22.0607 22.3736C22.342 22.0923 22.5 21.7108 22.5 21.313V6.31299H1.5Z" fill="#E9ECEF"/>
</g>
<defs>
<clipPath id="clip0_486_299">
<rect width="24" height="24" fill="white" transform="translate(0 0.312988)"/>
</clipPath>
</defs>
</svg>
