<svg width="24" height="25" viewBox="0 0 24 25" fill="none" xmlns="http://www.w3.org/2000/svg">
<g clip-path="url(#clip0_486_303)">
<path d="M4.017 18.154C4.1727 18.3103 4.292 18.499 4.36641 18.7067C4.44082 18.9143 4.46851 19.1359 4.4475 19.3555C4.34208 20.3719 4.14221 21.3762 3.8505 22.3555C5.943 21.871 7.221 21.31 7.8015 21.016C8.13076 20.8492 8.50993 20.8097 8.8665 20.905C9.88865 21.1775 10.9421 21.3147 12 21.313C17.994 21.313 22.5 17.1025 22.5 12.313C22.5 7.52499 17.994 3.31299 12 3.31299C6.006 3.31299 1.5 7.52499 1.5 12.313C1.5 14.515 2.4255 16.558 4.017 18.154ZM3.2775 24.0115C2.9221 24.0819 2.56555 24.1465 2.208 24.205C1.908 24.253 1.68 23.941 1.7985 23.662C1.93169 23.3479 2.05376 23.0292 2.1645 22.7065L2.169 22.6915C2.541 21.6115 2.844 20.3695 2.955 19.213C1.1145 17.368 0 14.953 0 12.313C0 6.51399 5.373 1.81299 12 1.81299C18.627 1.81299 24 6.51399 24 12.313C24 18.112 18.627 22.813 12 22.813C10.8115 22.8146 9.62788 22.6603 8.4795 22.354C7.6995 22.7485 6.021 23.467 3.2775 24.0115Z" fill="#E9ECEF"/>
</g>
<defs>
<clipPath id="clip0_486_303">
<rect width="24" height="24" fill="white" transform="translate(0 0.312988)"/>
</clipPath>
</defs>
</svg>
