<svg width="25" height="37" viewBox="0 0 25 37" fill="none" xmlns="http://www.w3.org/2000/svg">
<path d="M7.44458 13.6033C7.44458 13.5027 7.48453 13.4063 7.55563 13.3352C7.62674 13.2641 7.72318 13.2241 7.82374 13.2241H16.9236C17.0242 13.2241 17.1206 13.2641 17.1917 13.3352C17.2628 13.4063 17.3028 13.5027 17.3028 13.6033V15.1199C17.3028 15.2134 17.2682 15.3036 17.2057 15.3732L13.8903 19.0571V22.7032C13.8903 22.7827 13.8652 22.8602 13.8186 22.9247C13.7721 22.9892 13.7065 23.0375 13.631 23.0626L11.356 23.8209C11.299 23.8399 11.2384 23.8451 11.179 23.836C11.1197 23.827 11.0633 23.8039 11.0146 23.7689C10.9659 23.7338 10.9262 23.6876 10.8988 23.6342C10.8714 23.5807 10.8571 23.5215 10.857 23.4615V19.0571L7.54165 15.3732C7.47917 15.3036 7.4446 15.2134 7.44458 15.1199V13.6033ZM8.2029 13.9824V14.9743L11.5183 18.6583C11.5808 18.7278 11.6153 18.818 11.6154 18.9115V22.9352L13.132 22.4302V18.9115C13.132 18.818 13.1666 18.7278 13.2291 18.6583L16.5445 14.9743V13.9824H8.2029Z" fill="#ACA9B6" fill-opacity="0.75"/>
<path d="M13.6376 18.9602L13.7024 18.8881L17.0177 15.2043L13.6376 18.9602ZM13.6376 18.9602V19.0571M13.6376 18.9602V19.0571M13.6376 19.0571L13.6376 22.703M13.6376 19.0571L13.6376 22.703M13.5511 22.8228L13.5511 22.8228C13.5763 22.8144 13.5981 22.7983 13.6137 22.7768L13.8186 22.9247L13.6137 22.7768C13.6291 22.7554 13.6375 22.7296 13.6376 22.7032C13.6376 22.7031 13.6376 22.703 13.6376 22.703M13.5511 22.8228L13.6376 22.703M13.5511 22.8228L11.2761 23.5811C11.2761 23.5811 11.2761 23.5811 11.2761 23.5811C11.2571 23.5874 11.2369 23.5892 11.2171 23.5861C11.1974 23.5831 11.1786 23.5755 11.1623 23.5638C11.1461 23.5521 11.1329 23.5367 11.1237 23.5189C11.1146 23.501 11.1098 23.4813 11.1098 23.4613V19.0571V18.9602M13.5511 22.8228L11.1098 18.9602M11.1098 18.9602L11.0449 18.8881M11.1098 18.9602L11.0449 18.8881M11.0449 18.8881L7.72971 15.2043C7.72968 15.2043 7.72966 15.2043 7.72963 15.2042C7.70887 15.1811 7.69737 15.151 7.69735 15.1199C7.69735 15.1199 7.69735 15.1199 7.69735 15.1199V13.6033C7.69735 13.5698 7.71067 13.5376 7.73437 13.5139M11.0449 18.8881L7.73437 13.5139M7.73437 13.5139C7.75807 13.4902 7.79022 13.4769 7.82374 13.4769M7.73437 13.5139L7.82374 13.4769M7.82374 13.4769H16.9236M7.82374 13.4769H16.9236M16.9236 13.4769C16.9571 13.4769 16.9893 13.4902 17.013 13.5139M16.9236 13.4769L17.013 13.5139M17.013 13.5139C17.0367 13.5376 17.05 13.5698 17.05 13.6033M17.013 13.5139L17.05 13.6033M17.05 13.6033V15.1199M17.05 13.6033V15.1199M17.05 15.1199C17.05 15.1199 17.05 15.1199 17.05 15.1199M17.05 15.1199V15.1199M17.05 15.1199C17.05 15.151 17.0385 15.181 17.0178 15.2041L17.05 15.1199ZM8.2029 13.7297H7.95013V13.9824V14.9743V15.0713L8.01501 15.1434L11.3302 18.8272C11.3302 18.8272 11.3303 18.8272 11.3303 18.8272C11.3511 18.8504 11.3626 18.8804 11.3626 18.9115C11.3626 18.9116 11.3626 18.9116 11.3626 18.9116V22.9352V23.2858L11.6952 23.175L13.2119 22.67L13.3848 22.6124V22.4302V18.9116C13.3848 18.9116 13.3848 18.9116 13.3848 18.9115C13.3848 18.8804 13.3963 18.8504 13.4171 18.8272C13.4171 18.8272 13.4171 18.8272 13.4171 18.8272L16.7324 15.1434L16.7972 15.0713V14.9743V13.9824V13.7297H16.5445H8.2029Z" stroke="#ACA9B6" stroke-opacity="0.75" stroke-width="0.505549"/>
</svg>
