<svg width="14" height="14" viewBox="0 0 14 14" fill="none" xmlns="http://www.w3.org/2000/svg">
<g clip-path="url(#clip0_523_11217)">
<path fill-rule="evenodd" clip-rule="evenodd" d="M0.206529 0.206957C0.283103 0.130406 0.386945 0.0874023 0.49522 0.0874023C0.603496 0.0874023 0.707338 0.130406 0.783912 0.206957L4.12898 3.55202L4.12898 1.29149C4.12898 1.18319 4.172 1.07933 4.24858 1.00275C4.32515 0.926178 4.42902 0.883156 4.53731 0.883156C4.64561 0.883156 4.74947 0.926178 4.82605 1.00275C4.90262 1.07933 4.94565 1.18319 4.94565 1.29149L4.94565 4.53774C4.94565 4.64604 4.90263 4.7499 4.82605 4.82648C4.74947 4.90305 4.64561 4.94607 4.53731 4.94607L1.29106 4.94607C1.18277 4.94607 1.0789 4.90305 1.00233 4.82648C0.92575 4.7499 0.882729 4.64604 0.882729 4.53774C0.882729 4.42944 0.92575 4.32558 1.00233 4.249C1.0789 4.17243 1.18277 4.12941 1.29106 4.12941L3.5516 4.12941L0.206529 0.78434C0.129978 0.707766 0.0869742 0.603924 0.0869742 0.495648C0.0869742 0.387373 0.129978 0.283531 0.206529 0.206957ZM12.9933 13.0138C12.9167 13.0904 12.8129 13.1334 12.7046 13.1334C12.5963 13.1334 12.4925 13.0904 12.4159 13.0138L9.07084 9.66874L9.07084 11.9293C9.07084 12.0376 9.02782 12.1414 8.95125 12.218C8.87467 12.2946 8.77081 12.3376 8.66251 12.3376C8.55421 12.3376 8.45035 12.2946 8.37378 12.218C8.2972 12.1414 8.25418 12.0376 8.25418 11.9293L8.25418 8.68302C8.25418 8.57472 8.2972 8.47086 8.37378 8.39429C8.45035 8.31771 8.55421 8.27469 8.66251 8.27469L11.9088 8.27469C12.0171 8.27469 12.1209 8.31771 12.1975 8.39429C12.2741 8.47086 12.3171 8.57472 12.3171 8.68302C12.3171 8.79132 12.2741 8.89518 12.1975 8.97176C12.1209 9.04833 12.0171 9.09135 11.9088 9.09135L9.64823 9.09135L12.9933 12.4364C13.0698 12.513 13.1128 12.6168 13.1128 12.7251C13.1128 12.8334 13.0698 12.9372 12.9933 13.0138ZM0.0769043 12.7149C0.0769043 12.8231 0.119908 12.927 0.196459 13.0036C0.273033 13.0801 0.376875 13.1231 0.48515 13.1231C0.593426 13.1231 0.697269 13.0801 0.773842 13.0036L4.11891 9.65848L4.11891 11.919C4.11891 12.0273 4.16193 12.1312 4.23851 12.2078C4.31508 12.2843 4.41895 12.3273 4.52724 12.3273C4.63554 12.3273 4.7394 12.2843 4.81598 12.2078C4.89255 12.1312 4.93558 12.0273 4.93558 11.919L4.93558 8.67277C4.93558 8.56447 4.89255 8.46061 4.81598 8.38403C4.7394 8.30745 4.63554 8.26443 4.52724 8.26443L1.28099 8.26443C1.1727 8.26443 1.06883 8.30745 0.992257 8.38403C0.915679 8.46061 0.872658 8.56447 0.872658 8.67277C0.872658 8.78106 0.91568 8.88492 0.992257 8.9615C1.06883 9.03808 1.1727 9.0811 1.28099 9.0811L3.54153 9.0811L0.196459 12.4262C0.119908 12.5027 0.0769043 12.6066 0.0769043 12.7149ZM13.0033 0.217211C13.0799 0.293785 13.1229 0.397627 13.1229 0.505902C13.1229 0.614178 13.0799 0.718021 13.0033 0.794594L9.65824 4.13966L11.9188 4.13966C12.0271 4.13966 12.1309 4.18268 12.2075 4.25926C12.2841 4.33584 12.3271 4.4397 12.3271 4.54799C12.3271 4.65629 12.2841 4.76015 12.2075 4.83673C12.1309 4.91331 12.0271 4.95633 11.9188 4.95633L8.67252 4.95633C8.56422 4.95633 8.46036 4.91331 8.38379 4.83673C8.30721 4.76015 8.26419 4.65629 8.26419 4.54799L8.26419 1.30174C8.26419 1.19345 8.30721 1.08959 8.38379 1.01301C8.46036 0.936431 8.56423 0.89341 8.67252 0.89341C8.78082 0.89341 8.88468 0.936431 8.96126 1.01301C9.03783 1.08959 9.08086 1.19345 9.08086 1.30174L9.08085 3.56228L12.4259 0.217211C12.5025 0.14066 12.6063 0.0976563 12.7146 0.0976564C12.8229 0.0976564 12.9267 0.14066 13.0033 0.217211Z" fill="#0154A6"/>
</g>
<defs>
<clipPath id="clip0_523_11217">
<rect width="13.0667" height="13.0667" fill="white" transform="translate(0.0666504 0.0668945)"/>
</clipPath>
</defs>
</svg>
