<svg width="13" height="13" viewBox="0 0 13 13" fill="none" xmlns="http://www.w3.org/2000/svg">
<g clip-path="url(#clip0_502_5909)">
<path fill-rule="evenodd" clip-rule="evenodd" d="M4.74458 8.16103C4.67426 8.09073 4.5789 8.05124 4.47946 8.05124C4.38002 8.05124 4.28466 8.09073 4.21433 8.16103L1.14233 11.233V9.15703C1.14233 9.05758 1.10283 8.96219 1.0325 8.89187C0.962173 8.82154 0.86679 8.78203 0.767334 8.78203C0.667878 8.78203 0.572495 8.82154 0.502169 8.89187C0.431843 8.96219 0.392334 9.05758 0.392334 9.15703V12.1383C0.392334 12.2377 0.431843 12.3331 0.502169 12.4034C0.572495 12.4738 0.667878 12.5133 0.767334 12.5133H3.74858C3.84804 12.5133 3.94342 12.4738 4.01375 12.4034C4.08407 12.3331 4.12358 12.2377 4.12358 12.1383C4.12358 12.0388 4.08407 11.9434 4.01375 11.8731C3.94342 11.8028 3.84804 11.7633 3.74858 11.7633H1.67258L4.74458 8.69128C4.81489 8.62096 4.85438 8.52559 4.85438 8.42616C4.85438 8.32672 4.81489 8.23135 4.74458 8.16103ZM8.00258 8.16103C8.07291 8.09073 8.16827 8.05124 8.26771 8.05124C8.36715 8.05124 8.46251 8.09073 8.53283 8.16103L11.6048 11.233V9.15703C11.6048 9.05758 11.6443 8.96219 11.7147 8.89187C11.785 8.82154 11.8804 8.78203 11.9798 8.78203C12.0793 8.78203 12.1747 8.82154 12.245 8.89187C12.3153 8.96219 12.3548 9.05758 12.3548 9.15703V12.1383C12.3548 12.2377 12.3153 12.3331 12.245 12.4034C12.1747 12.4738 12.0793 12.5133 11.9798 12.5133H8.99858C8.89913 12.5133 8.80375 12.4738 8.73342 12.4034C8.66309 12.3331 8.62358 12.2377 8.62358 12.1383C8.62358 12.0388 8.66309 11.9434 8.73342 11.8731C8.80375 11.8028 8.89913 11.7633 8.99858 11.7633H11.0746L8.00258 8.69128C7.93228 8.62096 7.89279 8.52559 7.89279 8.42616C7.89279 8.32672 7.93228 8.23135 8.00258 8.16103ZM8.00258 4.90303C8.07291 4.97333 8.16827 5.01283 8.26771 5.01283C8.36715 5.01283 8.46251 4.97333 8.53283 4.90303L11.6048 1.83103V3.90703C11.6048 4.00649 11.6443 4.10187 11.7147 4.1722C11.785 4.24252 11.8804 4.28203 11.9798 4.28203C12.0793 4.28203 12.1747 4.24252 12.245 4.1722C12.3153 4.10187 12.3548 4.00649 12.3548 3.90703V0.925781C12.3548 0.826325 12.3153 0.730942 12.245 0.660616C12.1747 0.59029 12.0793 0.550781 11.9798 0.550781H8.99858C8.89913 0.550781 8.80375 0.59029 8.73342 0.660616C8.66309 0.730942 8.62358 0.826325 8.62358 0.925781C8.62358 1.02524 8.66309 1.12062 8.73342 1.19095C8.80375 1.26127 8.89913 1.30078 8.99858 1.30078H11.0746L8.00258 4.37278C7.93228 4.4431 7.89279 4.53847 7.89279 4.63791C7.89279 4.73734 7.93228 4.83271 8.00258 4.90303ZM4.74458 4.90303C4.67426 4.97333 4.5789 5.01283 4.47946 5.01283C4.38002 5.01283 4.28466 4.97333 4.21433 4.90303L1.14233 1.83103V3.90703C1.14233 4.00649 1.10283 4.10187 1.0325 4.1722C0.962173 4.24252 0.86679 4.28203 0.767334 4.28203C0.667878 4.28203 0.572495 4.24252 0.502169 4.1722C0.431843 4.10187 0.392334 4.00649 0.392334 3.90703V0.925781C0.392334 0.826325 0.431843 0.730942 0.502169 0.660616C0.572495 0.59029 0.667878 0.550781 0.767334 0.550781H3.74858C3.84804 0.550781 3.94342 0.59029 4.01375 0.660616C4.08407 0.730942 4.12358 0.826325 4.12358 0.925781C4.12358 1.02524 4.08407 1.12062 4.01375 1.19095C3.94342 1.26127 3.84804 1.30078 3.74858 1.30078H1.67258L4.74458 4.37278C4.81489 4.4431 4.85438 4.53847 4.85438 4.63791C4.85438 4.73734 4.81489 4.83271 4.74458 4.90303Z" fill="#0154A6"/>
</g>
<defs>
<clipPath id="clip0_502_5909">
<rect width="12" height="12" fill="white" transform="translate(0.373535 0.532227)"/>
</clipPath>
</defs>
</svg>
