<svg width="13" height="13" viewBox="0 0 13 13" fill="none" xmlns="http://www.w3.org/2000/svg">
<g clip-path="url(#clip0_502_5902)">
<path fill-rule="evenodd" clip-rule="evenodd" d="M5.23623 9.5657C5.78395 9.5657 6.3263 9.45782 6.83232 9.24822C7.33834 9.03862 7.79813 8.7314 8.18542 8.34411C8.57271 7.95682 8.87993 7.49703 9.08953 6.99101C9.29913 6.48499 9.40701 5.94264 9.40701 5.39492C9.40701 4.84721 9.29913 4.30486 9.08953 3.79884C8.87993 3.29281 8.57271 2.83303 8.18542 2.44574C7.79813 2.05844 7.33834 1.75123 6.83232 1.54163C6.3263 1.33202 5.78395 1.22414 5.23623 1.22414C4.13007 1.22414 3.06922 1.66356 2.28705 2.44574C1.50487 3.22791 1.06545 4.28876 1.06545 5.39492C1.06545 6.50108 1.50487 7.56194 2.28705 8.34411C3.06922 9.12628 4.13007 9.5657 5.23623 9.5657ZM10.1653 5.39492C10.1653 6.7022 9.64602 7.95594 8.72163 8.88033C7.79725 9.80471 6.54351 10.324 5.23623 10.324C3.92895 10.324 2.67522 9.80471 1.75083 8.88033C0.826444 7.95594 0.307129 6.7022 0.307129 5.39492C0.307129 4.08764 0.826444 2.83391 1.75083 1.90952C2.67522 0.985135 3.92895 0.46582 5.23623 0.46582C6.54351 0.46582 7.79725 0.985135 8.72163 1.90952C9.64602 2.83391 10.1653 4.08764 10.1653 5.39492Z" fill="#ACA9B6" fill-opacity="0.75"/>
<path d="M5.23623 9.81848C5.81714 9.81848 6.39236 9.70406 6.92905 9.48176C7.46574 9.25945 7.95339 8.93361 8.36416 8.52285C8.77492 8.11208 9.10076 7.62444 9.32306 7.08775C9.54537 6.55105 9.65979 5.97583 9.65979 5.39492C9.65979 4.81401 9.54537 4.23879 9.32306 3.7021C9.10076 3.16541 8.77492 2.67776 8.36416 2.267C7.95339 1.85623 7.46574 1.5304 6.92905 1.30809C6.39236 1.08579 5.81714 0.971369 5.23623 0.971369C4.06303 0.971369 2.93788 1.43742 2.10831 2.267C1.27873 3.09658 0.812678 4.22172 0.812678 5.39492C0.812678 6.56812 1.27873 7.69327 2.10831 8.52285C2.93788 9.35243 4.06303 9.81848 5.23623 9.81848ZM9.91256 5.39492C9.91256 6.63516 9.41988 7.82461 8.5429 8.70159C7.66591 9.57857 6.47647 10.0713 5.23623 10.0713C3.99599 10.0713 2.80655 9.57857 1.92957 8.70159C1.05259 7.82461 0.559903 6.63516 0.559903 5.39492C0.559903 4.15468 1.05259 2.96524 1.92957 2.08826C2.80655 1.21128 3.99599 0.718595 5.23623 0.718595C6.47647 0.718595 7.66591 1.21128 8.5429 2.08826C9.41988 2.96524 9.91256 4.15468 9.91256 5.39492Z" stroke="#ACA9B6" stroke-opacity="0.75" stroke-width="0.505549"/>
<path d="M8.15125 9.36998C8.17399 9.40031 8.19826 9.42913 8.22556 9.45718L11.1451 12.3767C11.2873 12.519 11.4802 12.599 11.6814 12.5991C11.8825 12.5991 12.0755 12.5193 12.2178 12.3771C12.36 12.2349 12.44 12.042 12.4401 11.8409C12.4402 11.6397 12.3603 11.4468 12.2181 11.3045L9.29859 8.38491C9.27148 8.35747 9.24232 8.33212 9.21138 8.30908C8.9139 8.7147 8.55643 9.07268 8.15125 9.37073V9.36998Z" fill="#ACA9B6" fill-opacity="0.75"/>
<path d="M8.52547 9.39961C8.78635 9.18482 9.02572 8.94515 9.24019 8.684L12.0393 11.4831C12.0394 11.4832 12.0394 11.4832 12.0394 11.4832C12.1342 11.5781 12.1874 11.7067 12.1873 11.8408C12.1873 11.9749 12.134 12.1035 12.0391 12.1983C11.9442 12.2931 11.8156 12.3463 11.6814 12.3463C11.5473 12.3462 11.4187 12.2929 11.3239 12.1981L11.3238 12.198L8.52547 9.39961Z" stroke="#ACA9B6" stroke-opacity="0.75" stroke-width="0.505549"/>
<path fill-rule="evenodd" clip-rule="evenodd" d="M5.23629 2.74072C5.33685 2.74072 5.43329 2.78067 5.50439 2.85178C5.5755 2.92288 5.61545 3.01932 5.61545 3.11988V5.01569H7.51126C7.61182 5.01569 7.70826 5.05564 7.77937 5.12675C7.85047 5.19785 7.89042 5.2943 7.89042 5.39486C7.89042 5.49542 7.85047 5.59186 7.77937 5.66296C7.70826 5.73407 7.61182 5.77402 7.51126 5.77402H5.61545V7.66983C5.61545 7.77039 5.5755 7.86683 5.50439 7.93793C5.43329 8.00904 5.33685 8.04899 5.23629 8.04899C5.13573 8.04899 5.03928 8.00904 4.96818 7.93793C4.89707 7.86683 4.85712 7.77039 4.85712 7.66983V5.77402H2.96132C2.86076 5.77402 2.76431 5.73407 2.69321 5.66296C2.6221 5.59186 2.58215 5.49542 2.58215 5.39486C2.58215 5.2943 2.6221 5.19785 2.69321 5.12675C2.76431 5.05564 2.86076 5.01569 2.96132 5.01569H4.85712V3.11988C4.85712 3.01932 4.89707 2.92288 4.96818 2.85178C5.03928 2.78067 5.13573 2.74072 5.23629 2.74072Z" fill="#ACA9B6" fill-opacity="0.75"/>
<path d="M5.36267 5.01569V5.26847H5.61545H7.51126C7.54478 5.26847 7.57692 5.28178 7.60063 5.30549C7.62433 5.32919 7.63764 5.36133 7.63764 5.39486C7.63764 5.42838 7.62433 5.46052 7.60063 5.48422C7.57692 5.50793 7.54478 5.52124 7.51126 5.52124H5.61545H5.36267V5.77402V7.66983C5.36267 7.70335 5.34936 7.73549 5.32565 7.7592C5.30195 7.7829 5.26981 7.79621 5.23629 7.79621C5.20277 7.79621 5.17062 7.7829 5.14692 7.7592C5.12321 7.73549 5.1099 7.70335 5.1099 7.66983V5.77402V5.52124H4.85712H2.96132C2.9278 5.52124 2.89565 5.50793 2.87195 5.48422C2.84824 5.46052 2.83493 5.42838 2.83493 5.39486C2.83493 5.36134 2.84824 5.32919 2.87195 5.30549C2.89565 5.28178 2.9278 5.26847 2.96132 5.26847H4.85712H5.1099V5.01569V3.11988C5.1099 3.08636 5.12321 3.05422 5.14692 3.03051C5.17062 3.00681 5.20277 2.9935 5.23629 2.9935C5.26981 2.9935 5.30195 3.00681 5.32566 3.03052C5.34936 3.05422 5.36267 3.08636 5.36267 3.11988V5.01569Z" stroke="#ACA9B6" stroke-opacity="0.75" stroke-width="0.505549"/>
</g>
<defs>
<clipPath id="clip0_502_5902">
<rect width="12.1332" height="12.1332" fill="white" transform="translate(0.307129 0.46582)"/>
</clipPath>
</defs>
</svg>
