<svg width="11" height="11" viewBox="0 0 11 11" fill="none" xmlns="http://www.w3.org/2000/svg">
<path d="M0.44458 0.603283C0.44458 0.502723 0.484527 0.406282 0.555634 0.335175C0.626741 0.264068 0.723182 0.224121 0.823742 0.224121H9.92363C10.0242 0.224121 10.1206 0.264068 10.1917 0.335175C10.2628 0.406282 10.3028 0.502723 10.3028 0.603283V2.11993C10.3028 2.21344 10.2682 2.30364 10.2057 2.37321L6.89033 6.05715V9.70317C6.89027 9.78271 6.86519 9.86022 6.81865 9.92473C6.77211 9.98924 6.70645 10.0375 6.63098 10.0626L4.35601 10.8209C4.29904 10.8399 4.23838 10.8451 4.17902 10.836C4.11966 10.827 4.0633 10.8039 4.01458 10.7689C3.96586 10.7338 3.92617 10.6876 3.89878 10.6342C3.87139 10.5807 3.85708 10.5215 3.85704 10.4615V6.05715L0.541646 2.37321C0.479166 2.30364 0.444597 2.21344 0.44458 2.11993V0.603283ZM1.2029 0.982445V1.97433L4.51829 5.65827C4.58077 5.72784 4.61534 5.81804 4.61536 5.91155V9.93521L6.13201 9.43017V5.91155C6.13202 5.81804 6.16659 5.72784 6.22907 5.65827L9.54446 1.97433V0.982445H1.2029Z" fill="#ACA9B6" fill-opacity="0.75"/>
<path d="M6.70244 5.88805L6.63756 5.96015V6.05715V9.70298C6.63754 9.72949 6.62918 9.75533 6.61366 9.77683C6.59815 9.79833 6.57626 9.81441 6.55111 9.82279L6.55105 9.82281L4.27614 10.5811C4.27612 10.5811 4.2761 10.5811 4.27608 10.5811C4.2571 10.5874 4.2369 10.5892 4.21714 10.5861C4.19735 10.5831 4.17857 10.5755 4.16232 10.5638C4.14608 10.5521 4.13285 10.5367 4.12372 10.5189C4.11459 10.501 4.10983 10.4813 4.10981 10.4613V6.05715V5.96015L4.04493 5.88805L0.72971 2.20431C0.729696 2.2043 0.729682 2.20428 0.729669 2.20427C0.708878 2.18109 0.697371 2.15106 0.697355 2.11993C0.697355 2.11992 0.697355 2.1199 0.697355 2.11988V0.603283C0.697355 0.569763 0.71067 0.537616 0.734373 0.513914C0.758075 0.490211 0.790222 0.476896 0.823742 0.476896H9.92362C9.95715 0.476896 9.98929 0.490212 10.013 0.513914C10.0367 0.537615 10.05 0.569762 10.05 0.603283V2.11988C10.05 2.1199 10.05 2.11992 10.05 2.11993C10.05 2.15106 10.0385 2.18108 10.0177 2.20426C10.0177 2.20427 10.0177 2.20429 10.0177 2.20431L6.70244 5.88805ZM1.2029 0.72967H0.950129V0.982445V1.97433V2.07133L1.01501 2.14343L4.33023 5.82717C4.33025 5.82719 4.33026 5.8272 4.33028 5.82722C4.35107 5.85039 4.36257 5.88042 4.36259 5.91155C4.36259 5.91156 4.36259 5.91158 4.36259 5.91159V9.93521V10.2858L4.69522 10.175L6.21187 9.67L6.38478 9.61242V9.43017V5.91159C6.38478 5.91158 6.38478 5.91156 6.38478 5.91155C6.3848 5.88042 6.3963 5.8504 6.41709 5.82722C6.4171 5.8272 6.41712 5.82719 6.41714 5.82717L9.73235 2.14343L9.79724 2.07133V1.97433V0.982445V0.72967H9.54446H1.2029Z" stroke="#ACA9B6" stroke-opacity="0.75" stroke-width="0.505549"/>
</svg>
