<svg width="25" height="37" viewBox="0 0 25 37" fill="none" xmlns="http://www.w3.org/2000/svg">
<g clip-path="url(#clip0_502_5901)">
<path fill-rule="evenodd" clip-rule="evenodd" d="M11.2362 21.5657C11.7839 21.5657 12.3263 21.4578 12.8323 21.2482C13.3383 21.0386 13.7981 20.7314 14.1854 20.3441C14.5727 19.9568 14.8799 19.497 15.0895 18.991C15.2991 18.485 15.407 17.9426 15.407 17.3949C15.407 16.8472 15.2991 16.3049 15.0895 15.7988C14.8799 15.2928 14.5727 14.833 14.1854 14.4457C13.7981 14.0584 13.3383 13.7512 12.8323 13.5416C12.3263 13.332 11.7839 13.2241 11.2362 13.2241C10.1301 13.2241 9.06922 13.6636 8.28705 14.4457C7.50487 15.2279 7.06545 16.2888 7.06545 17.3949C7.06545 18.5011 7.50487 19.5619 8.28705 20.3441C9.06922 21.1263 10.1301 21.5657 11.2362 21.5657ZM16.1653 17.3949C16.1653 18.7022 15.646 19.9559 14.7216 20.8803C13.7972 21.8047 12.5435 22.324 11.2362 22.324C9.92895 22.324 8.67522 21.8047 7.75083 20.8803C6.82644 19.9559 6.30713 18.7022 6.30713 17.3949C6.30713 16.0876 6.82644 14.8339 7.75083 13.9095C8.67522 12.9851 9.92895 12.4658 11.2362 12.4658C12.5435 12.4658 13.7972 12.9851 14.7216 13.9095C15.646 14.8339 16.1653 16.0876 16.1653 17.3949Z" fill="#ACA9B6" fill-opacity="0.75"/>
<path d="M11.2362 21.8185C11.8171 21.8185 12.3924 21.7041 12.9291 21.4818C13.4657 21.2595 13.9534 20.9336 14.3642 20.5229C14.7749 20.1121 15.1008 19.6244 15.3231 19.0877C15.5454 18.5511 15.6598 17.9758 15.6598 17.3949C15.6598 16.814 15.5454 16.2388 15.3231 15.7021C15.1008 15.1654 14.7749 14.6778 14.3642 14.267C13.9534 13.8562 13.4657 13.5304 12.9291 13.3081C12.3924 13.0858 11.8171 12.9714 11.2362 12.9714C10.063 12.9714 8.93788 13.4374 8.10831 14.267C7.27873 15.0966 6.81268 16.2217 6.81268 17.3949C6.81268 18.5681 7.27873 19.6933 8.10831 20.5228C8.93788 21.3524 10.063 21.8185 11.2362 21.8185ZM15.9126 17.3949C15.9126 18.6352 15.4199 19.8246 14.5429 20.7016C13.6659 21.5786 12.4765 22.0713 11.2362 22.0713C9.99599 22.0713 8.80655 21.5786 7.92957 20.7016C7.05259 19.8246 6.5599 18.6352 6.5599 17.3949C6.5599 16.1547 7.05259 14.9652 7.92957 14.0883C8.80655 13.2113 9.99599 12.7186 11.2362 12.7186C12.4765 12.7186 13.6659 13.2113 14.5429 14.0883C15.4199 14.9652 15.9126 16.1547 15.9126 17.3949Z" stroke="#ACA9B6" stroke-opacity="0.75" stroke-width="0.505549"/>
<path d="M14.1512 21.37C14.174 21.4003 14.1983 21.4291 14.2256 21.4572L17.1451 24.3767C17.2873 24.519 17.4802 24.599 17.6814 24.5991C17.8825 24.5991 18.0755 24.5193 18.2178 24.3771C18.36 24.2349 18.44 24.042 18.4401 23.8409C18.4402 23.6397 18.3603 23.4468 18.2181 23.3045L15.2986 20.3849C15.2715 20.3575 15.2423 20.3321 15.2114 20.3091C14.9139 20.7147 14.5564 21.0727 14.1512 21.3707V21.37Z" fill="#ACA9B6" fill-opacity="0.75"/>
<path d="M14.5255 21.3996C14.7864 21.1848 15.0257 20.9451 15.2402 20.684L18.0393 23.4831C18.0394 23.4832 18.0394 23.4832 18.0394 23.4832C18.1342 23.5781 18.1874 23.7067 18.1873 23.8408C18.1873 23.9749 18.134 24.1035 18.0391 24.1983C17.9442 24.2931 17.8156 24.3463 17.6814 24.3463C17.5473 24.3462 17.4187 24.2929 17.3239 24.1981L17.3238 24.198L14.5255 21.3996Z" stroke="#ACA9B6" stroke-opacity="0.75" stroke-width="0.505549"/>
<path fill-rule="evenodd" clip-rule="evenodd" d="M11.2363 14.7407C11.3368 14.7407 11.4333 14.7807 11.5044 14.8518C11.5755 14.9229 11.6154 15.0193 11.6154 15.1199V17.0157H13.5113C13.6118 17.0157 13.7083 17.0556 13.7794 17.1267C13.8505 17.1979 13.8904 17.2943 13.8904 17.3949C13.8904 17.4954 13.8505 17.5919 13.7794 17.663C13.7083 17.7341 13.6118 17.774 13.5113 17.774H11.6154V19.6698C11.6154 19.7704 11.5755 19.8668 11.5044 19.9379C11.4333 20.009 11.3368 20.049 11.2363 20.049C11.1357 20.049 11.0393 20.009 10.9682 19.9379C10.8971 19.8668 10.8571 19.7704 10.8571 19.6698V17.774H8.96132C8.86076 17.774 8.76431 17.7341 8.69321 17.663C8.6221 17.5919 8.58215 17.4954 8.58215 17.3949C8.58215 17.2943 8.6221 17.1979 8.69321 17.1267C8.76431 17.0556 8.86076 17.0157 8.96132 17.0157H10.8571V15.1199C10.8571 15.0193 10.8971 14.9229 10.9682 14.8518C11.0393 14.7807 11.1357 14.7407 11.2363 14.7407Z" fill="#ACA9B6" fill-opacity="0.75"/>
<path d="M11.3627 17.0157V17.2685H11.6154H13.5113C13.5448 17.2685 13.5769 17.2818 13.6006 17.3055C13.6243 17.3292 13.6376 17.3613 13.6376 17.3949C13.6376 17.4284 13.6243 17.4605 13.6006 17.4842C13.5769 17.5079 13.5448 17.5212 13.5113 17.5212H11.6154H11.3627V17.774V19.6698C11.3627 19.7033 11.3494 19.7355 11.3257 19.7592C11.302 19.7829 11.2698 19.7962 11.2363 19.7962C11.2028 19.7962 11.1706 19.7829 11.1469 19.7592C11.1232 19.7355 11.1099 19.7033 11.1099 19.6698V17.774V17.5212H10.8571H8.96132C8.9278 17.5212 8.89565 17.5079 8.87195 17.4842C8.84824 17.4605 8.83493 17.4284 8.83493 17.3949C8.83493 17.3613 8.84824 17.3292 8.87195 17.3055C8.89565 17.2818 8.9278 17.2685 8.96132 17.2685H10.8571H11.1099V17.0157V15.1199C11.1099 15.0864 11.1232 15.0542 11.1469 15.0305C11.1706 15.0068 11.2028 14.9935 11.2363 14.9935C11.2698 14.9935 11.302 15.0068 11.3257 15.0305C11.3494 15.0542 11.3627 15.0864 11.3627 15.1199V17.0157Z" stroke="#ACA9B6" stroke-opacity="0.75" stroke-width="0.505549"/>
</g>
<defs>
<clipPath id="clip0_502_5901">
<rect width="12.1332" height="12.1332" fill="white" transform="translate(6.30713 12.4658)"/>
</clipPath>
</defs>
</svg>
