<svg width="13" height="13" viewBox="0 0 13 13" fill="none" xmlns="http://www.w3.org/2000/svg">
<g clip-path="url(#clip0_502_5904)">
<path d="M10.5445 1.22389C10.2428 1.22389 9.95345 1.34374 9.74013 1.55706C9.52681 1.77038 9.40697 2.0597 9.40697 2.36138C9.40697 2.66306 9.52681 2.95238 9.74013 3.1657C9.95345 3.37902 10.2428 3.49886 10.5445 3.49886C10.8461 3.49886 11.1355 3.37902 11.3488 3.1657C11.5621 2.95238 11.6819 2.66306 11.6819 2.36138C11.6819 2.0597 11.5621 1.77038 11.3488 1.55706C11.1355 1.34374 10.8461 1.22389 10.5445 1.22389ZM8.64864 2.36138C8.64859 1.91657 8.80494 1.48591 9.09034 1.14473C9.37575 0.80356 9.77203 0.573604 10.2099 0.495097C10.6477 0.416591 11.0992 0.494533 11.4853 0.715288C11.8715 0.936043 12.1677 1.28555 12.3222 1.70267C12.4767 2.11978 12.4796 2.57794 12.3305 2.99699C12.1813 3.41603 11.8895 3.76927 11.5062 3.99492C11.1228 4.22056 10.6724 4.30423 10.2336 4.23129C9.7948 4.15835 9.39563 3.93345 9.10591 3.59593L4.0115 5.9619C4.12861 6.33305 4.12861 6.73127 4.0115 7.10242L9.10591 9.46839C9.41216 9.11223 9.83972 8.88244 10.3057 8.82355C10.7717 8.76466 11.243 8.88087 11.6282 9.14966C12.0134 9.41845 12.2852 9.82067 12.3907 10.2784C12.4963 10.7361 12.4282 11.2167 12.1996 11.627C11.971 12.0374 11.5982 12.3482 11.1534 12.4994C10.7087 12.6505 10.2237 12.6312 9.79241 12.4451C9.36112 12.259 9.01426 11.9195 8.81905 11.4923C8.62385 11.065 8.5942 10.5805 8.73585 10.1327L3.64143 7.76671C3.38924 8.06061 3.05309 8.27023 2.6782 8.36737C2.3033 8.4645 1.90765 8.44449 1.54447 8.31003C1.18129 8.17557 0.867999 7.93311 0.646745 7.61526C0.42549 7.29742 0.306885 6.91943 0.306885 6.53216C0.306885 6.14489 0.42549 5.7669 0.646745 5.44906C0.867999 5.13121 1.18129 4.88875 1.54447 4.75429C1.90765 4.61982 2.3033 4.59982 2.6782 4.69695C3.05309 4.79409 3.38924 5.0037 3.64143 5.29761L8.73585 2.93164C8.67786 2.74711 8.64845 2.5548 8.64864 2.36138ZM2.20289 5.39467C1.90121 5.39467 1.61189 5.51452 1.39857 5.72784C1.18525 5.94116 1.06541 6.23048 1.06541 6.53216C1.06541 6.83384 1.18525 7.12316 1.39857 7.33648C1.61189 7.5498 1.90121 7.66964 2.20289 7.66964C2.50457 7.66964 2.7939 7.5498 3.00722 7.33648C3.22054 7.12316 3.34038 6.83384 3.34038 6.53216C3.34038 6.23048 3.22054 5.94116 3.00722 5.72784C2.7939 5.51452 2.50457 5.39467 2.20289 5.39467ZM10.5445 9.56545C10.2428 9.56545 9.95345 9.6853 9.74013 9.89861C9.52681 10.1119 9.40697 10.4013 9.40697 10.7029C9.40697 11.0046 9.52681 11.2939 9.74013 11.5073C9.95345 11.7206 10.2428 11.8404 10.5445 11.8404C10.8461 11.8404 11.1355 11.7206 11.3488 11.5073C11.5621 11.2939 11.6819 11.0046 11.6819 10.7029C11.6819 10.4013 11.5621 10.1119 11.3488 9.89861C11.1355 9.6853 10.8461 9.56545 10.5445 9.56545Z" fill="#ACA9B6" fill-opacity="0.75"/>
<path d="M8.90142 2.36163V2.36135C8.90137 1.97585 9.03688 1.6026 9.28423 1.30692C9.53157 1.01124 9.87502 0.811942 10.2545 0.743903C10.6339 0.675864 11.0252 0.743415 11.3599 0.934736C11.6946 1.12606 11.9513 1.42896 12.0852 1.79046C12.2191 2.15196 12.2216 2.54904 12.0923 2.91221C11.963 3.27538 11.7101 3.58152 11.3779 3.77708C11.0457 3.97264 10.6553 4.04515 10.275 3.98194C9.89475 3.91873 9.54881 3.72381 9.29772 3.43129L9.17305 3.28605L8.99944 3.36667L3.90502 5.73264L3.70361 5.82618L3.77044 6.03796C3.87193 6.35961 3.87193 6.70471 3.77044 7.02635L3.70361 7.23813L3.90502 7.33167L8.99944 9.69764L9.17289 9.7782L9.29758 9.63319C9.56299 9.32452 9.93354 9.12536 10.3374 9.07433C10.7413 9.02329 11.1497 9.12401 11.4836 9.35696C11.8174 9.58991 12.0529 9.9385 12.1444 10.3352C12.2359 10.7319 12.1769 11.1484 11.9787 11.504C11.7806 11.8596 11.4575 12.129 11.0721 12.26C10.6867 12.391 10.2663 12.3743 9.89254 12.213C9.51875 12.0518 9.21814 11.7575 9.04896 11.3872C8.87979 11.0169 8.85409 10.597 8.97686 10.2089L9.04388 9.99703L8.84232 9.90342L3.74791 7.53745L3.57427 7.45681L3.4496 7.6021C3.23104 7.85682 2.9397 8.03849 2.6148 8.12267C2.28989 8.20686 1.94699 8.18952 1.63223 8.07298C1.31748 7.95645 1.04596 7.74632 0.854204 7.47085C0.66245 7.19538 0.559659 6.8678 0.559659 6.53216C0.559659 6.19652 0.66245 5.86894 0.854204 5.59347C1.04596 5.318 1.31748 5.10787 1.63223 4.99133C1.94699 4.8748 2.28989 4.85746 2.6148 4.94165C2.9397 5.02583 3.23104 5.2075 3.4496 5.46222L3.57427 5.6075L3.74791 5.52687L8.84232 3.1609L9.0435 3.06746L8.977 2.85585C8.92674 2.69593 8.90125 2.52926 8.90142 2.36163ZM10.5445 0.971119C10.1757 0.971119 9.82212 1.11759 9.56139 1.37832C9.30067 1.63904 9.15419 1.99266 9.15419 2.36138C9.15419 2.7301 9.30067 3.08372 9.56139 3.34444C9.82212 3.60517 10.1757 3.75164 10.5445 3.75164C10.9132 3.75164 11.2668 3.60517 11.5275 3.34444C11.7882 3.08372 11.9347 2.7301 11.9347 2.36138C11.9347 1.99266 11.7882 1.63904 11.5275 1.37832C11.2668 1.11759 10.9132 0.971119 10.5445 0.971119ZM2.20289 5.1419C1.83418 5.1419 1.48056 5.28837 1.21983 5.5491C0.959109 5.80982 0.812635 6.16344 0.812635 6.53216C0.812635 6.90088 0.959108 7.2545 1.21983 7.51522C1.48056 7.77595 1.83417 7.92242 2.20289 7.92242C2.57161 7.92242 2.92523 7.77595 3.18596 7.51522C3.44668 7.2545 3.59315 6.90088 3.59315 6.53216C3.59315 6.16344 3.44668 5.80982 3.18596 5.5491C2.92523 5.28837 2.57161 5.1419 2.20289 5.1419ZM10.5445 9.31268C10.1757 9.31268 9.82212 9.45915 9.56139 9.71988C9.30067 9.9806 9.15419 10.3342 9.15419 10.7029C9.15419 11.0717 9.30067 11.4253 9.56139 11.686C9.82212 11.9467 10.1757 12.0932 10.5445 12.0932C10.9132 12.0932 11.2668 11.9467 11.5275 11.686C11.7882 11.4253 11.9347 11.0717 11.9347 10.7029C11.9347 10.3342 11.7882 9.9806 11.5275 9.71988C11.2668 9.45915 10.9132 9.31268 10.5445 9.31268Z" stroke="#ACA9B6" stroke-opacity="0.75" stroke-width="0.505549"/>
</g>
<defs>
<clipPath id="clip0_502_5904">
<rect width="12.1332" height="12.1332" fill="white" transform="translate(0.307129 0.46582)"/>
</clipPath>
</defs>
</svg>
