<svg width="13" height="13" viewBox="0 0 13 13" fill="none" xmlns="http://www.w3.org/2000/svg">
<g clip-path="url(#clip0_502_5906)">
<path d="M0.686291 7.97314C0.786851 7.97314 0.883292 8.01309 0.954399 8.0842C1.02551 8.15531 1.06545 8.25175 1.06545 8.35231V10.2481C1.06545 10.4492 1.14535 10.6421 1.28756 10.7843C1.42977 10.9265 1.62266 11.0064 1.82378 11.0064H10.9237C11.1248 11.0064 11.3177 10.9265 11.4599 10.7843C11.6021 10.6421 11.682 10.4492 11.682 10.2481V8.35231C11.682 8.25175 11.7219 8.15531 11.793 8.0842C11.8641 8.01309 11.9606 7.97314 12.0611 7.97314C12.1617 7.97314 12.2581 8.01309 12.3293 8.0842C12.4004 8.15531 12.4403 8.25175 12.4403 8.35231V10.2481C12.4403 10.6504 12.2805 11.0361 11.9961 11.3205C11.7117 11.605 11.3259 11.7648 10.9237 11.7648H1.82378C1.42154 11.7648 1.03577 11.605 0.751345 11.3205C0.466918 11.0361 0.307129 10.6504 0.307129 10.2481V8.35231C0.307129 8.25175 0.347076 8.15531 0.418183 8.0842C0.489289 8.01309 0.585731 7.97314 0.686291 7.97314Z" fill="#ACA9B6" fill-opacity="0.75"/>
<path d="M0.686291 8.22592C0.71981 8.22592 0.751957 8.23923 0.77566 8.26294C0.799362 8.28664 0.812678 8.31879 0.812678 8.35231V10.2481C0.812678 10.5163 0.919204 10.7735 1.10882 10.9631C1.29844 11.1527 1.55562 11.2592 1.82378 11.2592H10.9237C11.1918 11.2592 11.449 11.1527 11.6386 10.9631C11.8282 10.7735 11.9348 10.5163 11.9348 10.2481V8.35231C11.9348 8.31879 11.9481 8.28664 11.9718 8.26294C11.9955 8.23923 12.0276 8.22592 12.0611 8.22592C12.0947 8.22592 12.1268 8.23923 12.1505 8.26294C12.1742 8.28664 12.1875 8.31879 12.1875 8.35231V10.2481C12.1875 10.5833 12.0544 10.9048 11.8174 11.1418C11.5803 11.3788 11.2589 11.512 10.9237 11.512H1.82378C1.48858 11.512 1.16711 11.3788 0.930083 11.1418C0.693061 10.9048 0.559903 10.5833 0.559903 10.2481V8.35231C0.559903 8.31879 0.573219 8.28664 0.596921 8.26294C0.620624 8.23923 0.652771 8.22592 0.686291 8.22592Z" stroke="#ACA9B6" stroke-opacity="0.75" stroke-width="0.505549"/>
<path d="M6.10528 9.45497C6.1405 9.49028 6.18234 9.51829 6.22841 9.53741C6.27447 9.55652 6.32385 9.56636 6.37373 9.56636C6.4236 9.56636 6.47298 9.55652 6.51905 9.53741C6.56511 9.51829 6.60695 9.49028 6.64217 9.45497L8.91714 7.17999C8.98834 7.1088 9.02834 7.01224 9.02834 6.91155C9.02834 6.81086 8.98834 6.7143 8.91714 6.6431C8.84595 6.57191 8.74939 6.53191 8.6487 6.53191C8.54801 6.53191 8.45145 6.57191 8.38025 6.6431L6.75289 8.27122V1.60328C6.75289 1.50272 6.71294 1.40628 6.64184 1.33518C6.57073 1.26407 6.47429 1.22412 6.37373 1.22412C6.27317 1.22412 6.17673 1.26407 6.10562 1.33518C6.03451 1.40628 5.99457 1.50272 5.99457 1.60328V8.27122L4.3672 6.6431C4.29601 6.57191 4.19944 6.53191 4.09876 6.53191C3.99807 6.53191 3.90151 6.57191 3.83031 6.6431C3.75911 6.7143 3.71912 6.81086 3.71912 6.91155C3.71912 7.01224 3.75911 7.1088 3.83031 7.17999L6.10528 9.45497Z" fill="#ACA9B6" fill-opacity="0.75"/>
<path d="M6.28425 9.27645L6.28402 9.27623L4.00905 7.00126C3.98526 6.97746 3.97189 6.9452 3.97189 6.91155C3.97189 6.8779 3.98526 6.84563 4.00905 6.82184C4.03284 6.79805 4.06511 6.78468 4.09876 6.78468C4.13238 6.78468 4.16464 6.79803 4.18842 6.8218C4.18844 6.82181 4.18845 6.82183 4.18846 6.82184L5.81579 8.44992L6.24734 8.88168V8.27122V1.60328C6.24734 1.56976 6.26066 1.53762 6.28436 1.51391C6.30806 1.49021 6.34021 1.4769 6.37373 1.4769C6.40725 1.4769 6.4394 1.49021 6.4631 1.51391C6.4868 1.53762 6.50012 1.56976 6.50012 1.60328V8.27122V8.88168L6.93167 8.44992L8.55899 6.82184C8.559 6.82183 8.55901 6.82182 8.55902 6.82181C8.55902 6.82181 8.55903 6.8218 8.55903 6.8218C8.58282 6.79803 8.61507 6.78468 8.6487 6.78468C8.68234 6.78468 8.71461 6.79805 8.73841 6.82184L8.91714 6.6431L8.73841 6.82184C8.7622 6.84563 8.77556 6.8779 8.77556 6.91155C8.77556 6.9452 8.7622 6.97746 8.73841 7.00126L6.46344 9.27623L6.46321 9.27645C6.45147 9.28822 6.43752 9.29756 6.42217 9.30393C6.40681 9.3103 6.39035 9.31358 6.37373 9.31358C6.3571 9.31358 6.34064 9.3103 6.32529 9.30393C6.30993 9.29756 6.29598 9.28822 6.28425 9.27645Z" stroke="#ACA9B6" stroke-opacity="0.75" stroke-width="0.505549"/>
</g>
<defs>
<clipPath id="clip0_502_5906">
<rect width="12.1332" height="12.1332" fill="white" transform="translate(0.307129 0.46582)"/>
</clipPath>
</defs>
</svg>
