<svg width="13" height="13" viewBox="0 0 13 13" fill="none" xmlns="http://www.w3.org/2000/svg">
<g clip-path="url(#clip0_502_5911)">
<path d="M6.37354 12.5319C6.77136 12.5319 7.15289 12.3739 7.4342 12.0926C7.7155 11.8113 7.87354 11.4297 7.87354 11.0319H4.87354C4.87354 11.4297 5.03157 11.8113 5.31287 12.0926C5.59418 12.3739 5.97571 12.5319 6.37354 12.5319ZM6.37354 1.97041L5.77579 2.09116C5.09776 2.22931 4.48828 2.59748 4.05052 3.13337C3.61277 3.66926 3.37361 4.33995 3.37354 5.03191C3.37354 5.50291 3.27304 6.67966 3.02929 7.83841C2.90929 8.41366 2.74729 9.01291 2.53204 9.53191H10.215C9.99979 9.01291 9.83854 8.41441 9.71778 7.83841C9.47404 6.67966 9.37354 5.50291 9.37354 5.03191C9.37329 4.34007 9.13405 3.66957 8.69631 3.13383C8.25856 2.5981 7.64919 2.23003 6.97128 2.09191L6.37354 1.96966V1.97041ZM11.0385 9.53191C11.2058 9.86716 11.3993 10.1327 11.6235 10.2819H1.12354C1.34779 10.1327 1.54129 9.86716 1.70854 9.53191C2.38354 8.18191 2.62354 5.69191 2.62354 5.03191C2.62354 3.21691 3.91354 1.70191 5.62729 1.35616C5.61682 1.25187 5.62832 1.14655 5.66106 1.04699C5.6938 0.947421 5.74704 0.855823 5.81735 0.7781C5.88766 0.700376 5.97349 0.638252 6.06928 0.595735C6.16508 0.553217 6.26873 0.53125 6.37354 0.53125C6.47834 0.53125 6.58199 0.553217 6.67779 0.595735C6.77358 0.638252 6.85941 0.700376 6.92972 0.7781C7.00003 0.855823 7.05327 0.947421 7.08601 1.04699C7.11875 1.14655 7.13025 1.25187 7.11979 1.35616C7.9675 1.52858 8.72957 1.98868 9.27696 2.65853C9.82435 3.32839 10.1234 4.16684 10.1235 5.03191C10.1235 5.69191 10.3635 8.18191 11.0385 9.53191Z" fill="#ACA9B6" fill-opacity="0.75"/>
<path d="M11.0409 10.0319C10.9583 9.91197 10.8833 9.78082 10.8149 9.64371C10.46 8.93389 10.2266 7.94333 10.0813 7.06391C9.93542 6.18134 9.87354 5.37961 9.87354 5.03194L11.0409 10.0319ZM11.0409 10.0319H1.70614C1.78874 9.91197 1.86373 9.78082 1.93214 9.64371C2.28705 8.93389 2.5205 7.94333 2.66582 7.06391C2.81165 6.18131 2.87354 5.37956 2.87354 5.03191C2.87354 3.33817 4.07742 1.92388 5.67673 1.60122L5.89865 1.55645L5.87604 1.33119C5.86906 1.26166 5.87673 1.19145 5.89855 1.12507C5.92038 1.0587 5.95587 0.997632 6.00275 0.945816C6.04962 0.894001 6.10684 0.852585 6.1707 0.82424L6.06928 0.595735L6.1707 0.82424C6.23457 0.795895 6.30366 0.78125 6.37354 0.78125C6.44341 0.78125 6.5125 0.795895 6.57637 0.82424C6.64023 0.852585 6.69745 0.894001 6.74433 0.945817C6.7912 0.997632 6.82669 1.0587 6.84852 1.12507C6.87034 1.19145 6.87801 1.26166 6.87104 1.33119L6.84846 1.55609L7.06996 1.60114C7.86118 1.76208 8.57246 2.19151 9.08338 2.81673C9.59429 3.44193 9.87343 4.2245 9.87354 5.03191L11.0409 10.0319ZM7.0212 1.84694L6.42363 1.72473L6.12354 1.66335V1.76586L5.72628 1.84611L5.72587 1.84619C4.99137 1.99585 4.33113 2.39469 3.85691 2.97521C3.38269 3.55574 3.12362 4.28228 3.12354 5.03188V5.03191C3.12354 5.48318 3.02537 6.64256 2.78464 7.78694L2.78455 7.78735C2.66628 8.35432 2.50813 8.93696 2.30111 9.43613L2.1577 9.78191H2.53204H10.215H10.5894L10.446 9.43613C10.239 8.93705 10.0816 8.35519 9.96247 7.78711L9.96243 7.78694C9.7217 6.64256 9.62354 5.48318 9.62354 5.03191V5.03182C9.62327 4.28236 9.36411 3.55601 8.8899 2.97565C8.4157 2.39529 7.75557 1.99657 7.0212 1.84694ZM7.25742 11.9158C7.023 12.1502 6.70506 12.2819 6.37354 12.2819C6.04202 12.2819 5.72407 12.1502 5.48965 11.9158C5.31506 11.7412 5.19744 11.5203 5.14879 11.2819H7.59829C7.54963 11.5203 7.43201 11.7412 7.25742 11.9158Z" stroke="#ACA9B6" stroke-opacity="0.75" stroke-width="0.5"/>
</g>
<defs>
<clipPath id="clip0_502_5911">
<rect width="12" height="12" fill="white" transform="translate(0.373535 0.532227)"/>
</clipPath>
</defs>
</svg>
