<svg width="13" height="13" viewBox="0 0 13 13" fill="none" xmlns="http://www.w3.org/2000/svg">
<g clip-path="url(#clip0_502_5913)">
<path d="M6.37347 4.09766C6.05376 4.09766 5.73719 4.16063 5.44182 4.28297C5.14646 4.40532 4.87808 4.58464 4.65201 4.8107C4.42595 5.03677 4.24663 5.30515 4.12428 5.60051C4.00194 5.89588 3.93896 6.21245 3.93896 6.53216C3.93896 6.85186 4.00194 7.16843 4.12428 7.4638C4.24663 7.75917 4.42595 8.02754 4.65201 8.25361C4.87808 8.47967 5.14646 8.659 5.44182 8.78134C5.73719 8.90369 6.05376 8.96666 6.37347 8.96666C7.01913 8.96666 7.63836 8.71017 8.09492 8.25361C8.55147 7.79705 8.80797 7.17783 8.80797 6.53216C8.80797 5.88649 8.55147 5.26726 8.09492 4.8107C7.63836 4.35415 7.01913 4.09766 6.37347 4.09766ZM4.68897 6.53216C4.68897 6.0854 4.86644 5.65694 5.18234 5.34103C5.49825 5.02513 5.92671 4.84766 6.37347 4.84766C6.82022 4.84766 7.24868 5.02513 7.56459 5.34103C7.88049 5.65694 8.05797 6.0854 8.05797 6.53216C8.05797 6.97891 7.88049 7.40737 7.56459 7.72328C7.24868 8.03918 6.82022 8.21666 6.37347 8.21666C5.92671 8.21666 5.49825 8.03918 5.18234 7.72328C4.86644 7.40737 4.68897 6.97891 4.68897 6.53216Z" fill="#ACA9B6" fill-opacity="0.75"/>
<path d="M5.53749 4.51394C5.80253 4.40416 6.08659 4.34766 6.37347 4.34766C6.95283 4.34766 7.50847 4.57781 7.91814 4.98748C8.32781 5.39715 8.55797 5.95279 8.55797 6.53216C8.55797 7.11152 8.32781 7.66716 7.91814 8.07683C7.50847 8.4865 6.95283 8.71666 6.37347 8.71666C6.08659 8.71666 5.80253 8.66015 5.53749 8.55037C5.27246 8.44059 5.03164 8.27968 4.82879 8.07683C4.62594 7.87398 4.46503 7.63316 4.35525 7.36813C4.24547 7.10309 4.18896 6.81903 4.18896 6.53216C4.18896 6.24528 4.24547 5.96122 4.35525 5.69618C4.46503 5.43115 4.62594 5.19033 4.82879 4.98748C5.03164 4.78463 5.27246 4.62372 5.53749 4.51394ZM5.00557 5.16426C4.64278 5.52705 4.43897 6.01909 4.43897 6.53216C4.43897 7.04522 4.64278 7.53727 5.00557 7.90005C5.36836 8.26284 5.8604 8.46666 6.37347 8.46666C6.88653 8.46666 7.37857 8.26284 7.74136 7.90005C8.10415 7.53727 8.30797 7.04522 8.30797 6.53216C8.30797 6.01909 8.10415 5.52705 7.74136 5.16426C7.37857 4.80147 6.88653 4.59766 6.37347 4.59766C5.8604 4.59766 5.36836 4.80147 5.00557 5.16426Z" stroke="#ACA9B6" stroke-opacity="0.75" stroke-width="0.5"/>
<mask id="path-3-inside-1_502_5913" fill="white">
<path d="M7.7204 1.5391C7.32515 0.196602 5.42165 0.196602 5.0264 1.5391L4.9559 1.77835C4.9283 1.87207 4.88008 1.95842 4.81477 2.03107C4.74946 2.10373 4.66871 2.16084 4.57846 2.19824C4.48821 2.23564 4.39073 2.25236 4.29317 2.24719C4.19561 2.24202 4.10045 2.21508 4.01465 2.16835L3.79565 2.04835C2.56565 1.37935 1.2209 2.72485 1.89065 3.9541L2.0099 4.1731C2.05663 4.2589 2.08357 4.35406 2.08874 4.45162C2.09391 4.54918 2.07719 4.64665 2.03979 4.73691C2.0024 4.82716 1.94528 4.9079 1.87262 4.97321C1.79997 5.03852 1.71362 5.08675 1.6199 5.11435L1.38065 5.18485C0.0381543 5.5801 0.0381543 7.4836 1.38065 7.87885L1.6199 7.94935C1.71362 7.97695 1.79997 8.02518 1.87262 8.09049C1.94528 8.1558 2.0024 8.23654 2.03979 8.3268C2.07719 8.41705 2.09391 8.51453 2.08874 8.61209C2.08357 8.70964 2.05663 8.80481 2.0099 8.8906L1.8899 9.1096C1.2209 10.3396 2.56565 11.6851 3.79565 11.0146L4.01465 10.8954C4.10045 10.8486 4.19561 10.8217 4.29317 10.8165C4.39073 10.8113 4.48821 10.8281 4.57846 10.8655C4.66871 10.9029 4.74946 10.96 4.81477 11.0326C4.88008 11.1053 4.9283 11.1916 4.9559 11.2854L5.0264 11.5246C5.42165 12.8671 7.32515 12.8671 7.7204 11.5246L7.7909 11.2854C7.81851 11.1916 7.86673 11.1053 7.93204 11.0326C7.99735 10.96 8.07809 10.9029 8.16835 10.8655C8.2586 10.8281 8.35608 10.8113 8.45364 10.8165C8.5512 10.8217 8.64636 10.8486 8.73215 10.8954L8.95115 11.0154C10.1812 11.6851 11.5267 10.3389 10.8562 9.1096L10.7369 8.8906C10.6902 8.80481 10.6632 8.70964 10.6581 8.61209C10.6529 8.51453 10.6696 8.41705 10.707 8.3268C10.7444 8.23654 10.8015 8.1558 10.8742 8.09049C10.9468 8.02518 11.0332 7.97695 11.1269 7.94935L11.3662 7.87885C12.7087 7.4836 12.7087 5.5801 11.3662 5.18485L11.1269 5.11435C11.0332 5.08675 10.9468 5.03852 10.8742 4.97321C10.8015 4.9079 10.7444 4.82716 10.707 4.73691C10.6696 4.64665 10.6529 4.54918 10.6581 4.45162C10.6632 4.35406 10.6902 4.2589 10.7369 4.1731L10.8569 3.9541C11.5267 2.7241 10.1804 1.37935 8.95115 2.0491L8.73215 2.16835C8.64636 2.21508 8.5512 2.24202 8.45364 2.24719C8.35608 2.25236 8.2586 2.23564 8.16835 2.19824C8.07809 2.16084 7.99735 2.10373 7.93204 2.03107C7.86673 1.95842 7.81851 1.87207 7.7909 1.77835L7.7204 1.5391ZM5.74565 1.75135C5.93015 1.1251 6.81665 1.1251 7.00115 1.75135L7.07165 1.9906C7.13092 2.19167 7.23443 2.37692 7.3746 2.53278C7.51477 2.68863 7.68804 2.81115 7.88171 2.89134C8.07538 2.97152 8.28455 3.00735 8.49387 2.99619C8.70319 2.98504 8.90735 2.92717 9.0914 2.82685L9.30965 2.70685C9.88265 2.3956 10.5097 3.02185 10.1977 3.5956L10.0784 3.8146C9.97823 3.99867 9.92051 4.20282 9.90948 4.41209C9.89844 4.62136 9.93436 4.83045 10.0146 5.02404C10.0949 5.21763 10.2174 5.3908 10.3733 5.53088C10.5291 5.67096 10.7144 5.7744 10.9154 5.8336L11.1539 5.9041C11.7802 6.0886 11.7802 6.9751 11.1539 7.1596L10.9147 7.2301C10.7136 7.28937 10.5283 7.39288 10.3725 7.53305C10.2166 7.67321 10.0941 7.84649 10.0139 8.04016C9.93373 8.23383 9.8979 8.44299 9.90906 8.65231C9.92022 8.86163 9.97808 9.0658 10.0784 9.24985L10.1984 9.4681C10.5097 10.0411 9.8834 10.6681 9.30965 10.3561L9.0914 10.2369C8.9073 10.1365 8.70309 10.0787 8.49373 10.0676C8.28437 10.0565 8.07517 10.0924 7.88149 10.1726C7.68781 10.2529 7.51455 10.3755 7.37441 10.5314C7.23428 10.6874 7.13083 10.8727 7.07165 11.0739L7.00115 11.3124C6.81665 11.9386 5.93015 11.9386 5.74565 11.3124L5.67515 11.0731C5.61586 10.8721 5.51237 10.687 5.37225 10.5312C5.23214 10.3754 5.05895 10.253 4.86537 10.1728C4.6718 10.0926 4.46274 10.0568 4.25351 10.0678C4.04428 10.0789 3.84017 10.1367 3.65615 10.2369L3.43715 10.3569C2.86415 10.6681 2.23715 10.0419 2.54915 9.4681L2.6684 9.24985C2.76887 9.06577 2.82684 8.86154 2.83807 8.65213C2.84931 8.44272 2.81351 8.23345 2.73331 8.03968C2.65311 7.84591 2.53055 7.67256 2.37461 7.53234C2.21868 7.39212 2.03332 7.28859 1.83215 7.22935L1.5929 7.15885C0.966654 6.97435 0.966654 6.08785 1.5929 5.90335L1.83215 5.83285C2.03301 5.77353 2.21806 5.67006 2.37376 5.52999C2.52946 5.38993 2.65188 5.21682 2.73204 5.02334C2.81221 4.82986 2.8481 4.62091 2.83709 4.41177C2.82608 4.20263 2.76845 3.99859 2.6684 3.8146L2.5484 3.5956C2.23715 3.0226 2.8634 2.3956 3.43715 2.7076L3.65615 2.82685C3.84017 2.92703 4.04428 2.98478 4.25351 2.99587C4.46274 3.00695 4.6718 2.97109 4.86537 2.89091C5.05895 2.81074 5.23214 2.68827 5.37225 2.53249C5.51237 2.37671 5.61586 2.19156 5.67515 1.9906L5.74565 1.75135Z"/>
</mask>
<path d="M7.7204 1.5391C7.32515 0.196602 5.42165 0.196602 5.0264 1.5391L4.9559 1.77835C4.9283 1.87207 4.88008 1.95842 4.81477 2.03107C4.74946 2.10373 4.66871 2.16084 4.57846 2.19824C4.48821 2.23564 4.39073 2.25236 4.29317 2.24719C4.19561 2.24202 4.10045 2.21508 4.01465 2.16835L3.79565 2.04835C2.56565 1.37935 1.2209 2.72485 1.89065 3.9541L2.0099 4.1731C2.05663 4.2589 2.08357 4.35406 2.08874 4.45162C2.09391 4.54918 2.07719 4.64665 2.03979 4.73691C2.0024 4.82716 1.94528 4.9079 1.87262 4.97321C1.79997 5.03852 1.71362 5.08675 1.6199 5.11435L1.38065 5.18485C0.0381543 5.5801 0.0381543 7.4836 1.38065 7.87885L1.6199 7.94935C1.71362 7.97695 1.79997 8.02518 1.87262 8.09049C1.94528 8.1558 2.0024 8.23654 2.03979 8.3268C2.07719 8.41705 2.09391 8.51453 2.08874 8.61209C2.08357 8.70964 2.05663 8.80481 2.0099 8.8906L1.8899 9.1096C1.2209 10.3396 2.56565 11.6851 3.79565 11.0146L4.01465 10.8954C4.10045 10.8486 4.19561 10.8217 4.29317 10.8165C4.39073 10.8113 4.48821 10.8281 4.57846 10.8655C4.66871 10.9029 4.74946 10.96 4.81477 11.0326C4.88008 11.1053 4.9283 11.1916 4.9559 11.2854L5.0264 11.5246C5.42165 12.8671 7.32515 12.8671 7.7204 11.5246L7.7909 11.2854C7.81851 11.1916 7.86673 11.1053 7.93204 11.0326C7.99735 10.96 8.07809 10.9029 8.16835 10.8655C8.2586 10.8281 8.35608 10.8113 8.45364 10.8165C8.5512 10.8217 8.64636 10.8486 8.73215 10.8954L8.95115 11.0154C10.1812 11.6851 11.5267 10.3389 10.8562 9.1096L10.7369 8.8906C10.6902 8.80481 10.6632 8.70964 10.6581 8.61209C10.6529 8.51453 10.6696 8.41705 10.707 8.3268C10.7444 8.23654 10.8015 8.1558 10.8742 8.09049C10.9468 8.02518 11.0332 7.97695 11.1269 7.94935L11.3662 7.87885C12.7087 7.4836 12.7087 5.5801 11.3662 5.18485L11.1269 5.11435C11.0332 5.08675 10.9468 5.03852 10.8742 4.97321C10.8015 4.9079 10.7444 4.82716 10.707 4.73691C10.6696 4.64665 10.6529 4.54918 10.6581 4.45162C10.6632 4.35406 10.6902 4.2589 10.7369 4.1731L10.8569 3.9541C11.5267 2.7241 10.1804 1.37935 8.95115 2.0491L8.73215 2.16835C8.64636 2.21508 8.5512 2.24202 8.45364 2.24719C8.35608 2.25236 8.2586 2.23564 8.16835 2.19824C8.07809 2.16084 7.99735 2.10373 7.93204 2.03107C7.86673 1.95842 7.81851 1.87207 7.7909 1.77835L7.7204 1.5391ZM5.74565 1.75135C5.93015 1.1251 6.81665 1.1251 7.00115 1.75135L7.07165 1.9906C7.13092 2.19167 7.23443 2.37692 7.3746 2.53278C7.51477 2.68863 7.68804 2.81115 7.88171 2.89134C8.07538 2.97152 8.28455 3.00735 8.49387 2.99619C8.70319 2.98504 8.90735 2.92717 9.0914 2.82685L9.30965 2.70685C9.88265 2.3956 10.5097 3.02185 10.1977 3.5956L10.0784 3.8146C9.97823 3.99867 9.92051 4.20282 9.90948 4.41209C9.89844 4.62136 9.93436 4.83045 10.0146 5.02404C10.0949 5.21763 10.2174 5.3908 10.3733 5.53088C10.5291 5.67096 10.7144 5.7744 10.9154 5.8336L11.1539 5.9041C11.7802 6.0886 11.7802 6.9751 11.1539 7.1596L10.9147 7.2301C10.7136 7.28937 10.5283 7.39288 10.3725 7.53305C10.2166 7.67321 10.0941 7.84649 10.0139 8.04016C9.93373 8.23383 9.8979 8.44299 9.90906 8.65231C9.92022 8.86163 9.97808 9.0658 10.0784 9.24985L10.1984 9.4681C10.5097 10.0411 9.8834 10.6681 9.30965 10.3561L9.0914 10.2369C8.9073 10.1365 8.70309 10.0787 8.49373 10.0676C8.28437 10.0565 8.07517 10.0924 7.88149 10.1726C7.68781 10.2529 7.51455 10.3755 7.37441 10.5314C7.23428 10.6874 7.13083 10.8727 7.07165 11.0739L7.00115 11.3124C6.81665 11.9386 5.93015 11.9386 5.74565 11.3124L5.67515 11.0731C5.61586 10.8721 5.51237 10.687 5.37225 10.5312C5.23214 10.3754 5.05895 10.253 4.86537 10.1728C4.6718 10.0926 4.46274 10.0568 4.25351 10.0678C4.04428 10.0789 3.84017 10.1367 3.65615 10.2369L3.43715 10.3569C2.86415 10.6681 2.23715 10.0419 2.54915 9.4681L2.6684 9.24985C2.76887 9.06577 2.82684 8.86154 2.83807 8.65213C2.84931 8.44272 2.81351 8.23345 2.73331 8.03968C2.65311 7.84591 2.53055 7.67256 2.37461 7.53234C2.21868 7.39212 2.03332 7.28859 1.83215 7.22935L1.5929 7.15885C0.966654 6.97435 0.966654 6.08785 1.5929 5.90335L1.83215 5.83285C2.03301 5.77353 2.21806 5.67006 2.37376 5.52999C2.52946 5.38993 2.65188 5.21682 2.73204 5.02334C2.81221 4.82986 2.8481 4.62091 2.83709 4.41177C2.82608 4.20263 2.76845 3.99859 2.6684 3.8146L2.5484 3.5956C2.23715 3.0226 2.8634 2.3956 3.43715 2.7076L3.65615 2.82685C3.84017 2.92703 4.04428 2.98478 4.25351 2.99587C4.46274 3.00695 4.6718 2.97109 4.86537 2.89091C5.05895 2.81074 5.23214 2.68827 5.37225 2.53249C5.51237 2.37671 5.61586 2.19156 5.67515 1.9906L5.74565 1.75135Z" fill="#ACA9B6" fill-opacity="0.75" stroke="#ACA9B6" stroke-opacity="0.75" mask="url(#path-3-inside-1_502_5913)"/>
</g>
<defs>
<clipPath id="clip0_502_5913">
<rect width="12" height="12" fill="white" transform="translate(0.373535 0.532227)"/>
</clipPath>
</defs>
</svg>
