<svg width="13" height="13" viewBox="0 0 13 13" fill="none" xmlns="http://www.w3.org/2000/svg">
<path d="M6.37345 3.451C6.64213 3.451 6.85994 3.23319 6.85994 2.96451C6.85994 2.69583 6.64213 2.47803 6.37345 2.47803C6.10477 2.47803 5.88696 2.69583 5.88696 2.96451C5.88696 3.23319 6.10477 3.451 6.37345 3.451Z" fill="#ACA9B6" fill-opacity="0.75" stroke="#ACA9B6" stroke-opacity="0.75" stroke-width="0.972973" stroke-linecap="round" stroke-linejoin="round"/>
<path d="M6.37345 7.01887C6.64213 7.01887 6.85994 6.80106 6.85994 6.53238C6.85994 6.26371 6.64213 6.0459 6.37345 6.0459C6.10477 6.0459 5.88696 6.26371 5.88696 6.53238C5.88696 6.80106 6.10477 7.01887 6.37345 7.01887Z" fill="#ACA9B6" fill-opacity="0.75" stroke="#ACA9B6" stroke-opacity="0.75" stroke-width="0.972973" stroke-linecap="round" stroke-linejoin="round"/>
<path d="M6.37345 10.5863C6.64213 10.5863 6.85994 10.3684 6.85994 10.0998C6.85994 9.83109 6.64213 9.61328 6.37345 9.61328C6.10477 9.61328 5.88696 9.83109 5.88696 10.0998C5.88696 10.3684 6.10477 10.5863 6.37345 10.5863Z" fill="#ACA9B6" fill-opacity="0.75" stroke="#ACA9B6" stroke-opacity="0.75" stroke-width="0.972973" stroke-linecap="round" stroke-linejoin="round"/>
</svg>
