<svg width="25" height="37" viewBox="0 0 25 37" fill="none" xmlns="http://www.w3.org/2000/svg">
<g clip-path="url(#clip0_502_5908)">
<path fill-rule="evenodd" clip-rule="evenodd" d="M10.7446 20.161C10.6743 20.0907 10.5789 20.0512 10.4795 20.0512C10.38 20.0512 10.2847 20.0907 10.2143 20.161L7.14233 23.233V21.157C7.14233 21.0576 7.10283 20.9622 7.0325 20.8919C6.96217 20.8215 6.86679 20.782 6.76733 20.782C6.66788 20.782 6.5725 20.8215 6.50217 20.8919C6.43184 20.9622 6.39233 21.0576 6.39233 21.157V24.1383C6.39233 24.2377 6.43184 24.3331 6.50217 24.4034C6.5725 24.4738 6.66788 24.5133 6.76733 24.5133H9.74858C9.84804 24.5133 9.94342 24.4738 10.0137 24.4034C10.0841 24.3331 10.1236 24.2377 10.1236 24.1383C10.1236 24.0388 10.0841 23.9434 10.0137 23.8731C9.94342 23.8028 9.84804 23.7633 9.74858 23.7633H7.67258L10.7446 20.6913C10.8149 20.621 10.8544 20.5256 10.8544 20.4262C10.8544 20.3267 10.8149 20.2314 10.7446 20.161ZM14.0026 20.161C14.0729 20.0907 14.1683 20.0512 14.2677 20.0512C14.3671 20.0512 14.4625 20.0907 14.5328 20.161L17.6048 23.233V21.157C17.6048 21.0576 17.6443 20.9622 17.7147 20.8919C17.785 20.8215 17.8804 20.782 17.9798 20.782C18.0793 20.782 18.1747 20.8215 18.245 20.8919C18.3153 20.9622 18.3548 21.0576 18.3548 21.157V24.1383C18.3548 24.2377 18.3153 24.3331 18.245 24.4034C18.1747 24.4738 18.0793 24.5133 17.9798 24.5133H14.9986C14.8991 24.5133 14.8037 24.4738 14.7334 24.4034C14.6631 24.3331 14.6236 24.2377 14.6236 24.1383C14.6236 24.0388 14.6631 23.9434 14.7334 23.8731C14.8037 23.8028 14.8991 23.7633 14.9986 23.7633H17.0746L14.0026 20.6913C13.9323 20.621 13.8928 20.5256 13.8928 20.4262C13.8928 20.3267 13.9323 20.2314 14.0026 20.161ZM14.0026 16.903C14.0729 16.9733 14.1683 17.0128 14.2677 17.0128C14.3671 17.0128 14.4625 16.9733 14.5328 16.903L17.6048 13.831V15.907C17.6048 16.0065 17.6443 16.1019 17.7147 16.1722C17.785 16.2425 17.8804 16.282 17.9798 16.282C18.0793 16.282 18.1747 16.2425 18.245 16.1722C18.3153 16.1019 18.3548 16.0065 18.3548 15.907V12.9258C18.3548 12.8263 18.3153 12.7309 18.245 12.6606C18.1747 12.5903 18.0793 12.5508 17.9798 12.5508H14.9986C14.8991 12.5508 14.8037 12.5903 14.7334 12.6606C14.6631 12.7309 14.6236 12.8263 14.6236 12.9258C14.6236 13.0252 14.6631 13.1206 14.7334 13.1909C14.8037 13.2613 14.8991 13.3008 14.9986 13.3008H17.0746L14.0026 16.3728C13.9323 16.4431 13.8928 16.5385 13.8928 16.6379C13.8928 16.7373 13.9323 16.8327 14.0026 16.903ZM10.7446 16.903C10.6743 16.9733 10.5789 17.0128 10.4795 17.0128C10.38 17.0128 10.2847 16.9733 10.2143 16.903L7.14233 13.831V15.907C7.14233 16.0065 7.10283 16.1019 7.0325 16.1722C6.96217 16.2425 6.86679 16.282 6.76733 16.282C6.66788 16.282 6.5725 16.2425 6.50217 16.1722C6.43184 16.1019 6.39233 16.0065 6.39233 15.907V12.9258C6.39233 12.8263 6.43184 12.7309 6.50217 12.6606C6.5725 12.5903 6.66788 12.5508 6.76733 12.5508H9.74858C9.84804 12.5508 9.94342 12.5903 10.0137 12.6606C10.0841 12.7309 10.1236 12.8263 10.1236 12.9258C10.1236 13.0252 10.0841 13.1206 10.0137 13.1909C9.94342 13.2613 9.84804 13.3008 9.74858 13.3008H7.67258L10.7446 16.3728C10.8149 16.4431 10.8544 16.5385 10.8544 16.6379C10.8544 16.7373 10.8149 16.8327 10.7446 16.903Z" fill="#0154A6"/>
</g>
<defs>
<clipPath id="clip0_502_5908">
<rect width="12" height="12" fill="white" transform="translate(6.37354 12.5322)"/>
</clipPath>
</defs>
</svg>
