<svg width="11" height="11" viewBox="0 0 11 11" fill="none" xmlns="http://www.w3.org/2000/svg">
<path d="M9.93959 5.11219L5.87559 9.17619C5.37772 9.67406 4.70246 9.95376 3.99836 9.95376C3.29427 9.95376 2.61901 9.67406 2.12114 9.17619C1.62327 8.67832 1.34357 8.00306 1.34357 7.29896C1.34357 6.59487 1.62327 5.91961 2.12114 5.42174L6.18514 1.35774C6.51705 1.02582 6.96723 0.839355 7.43662 0.839355C7.90602 0.839355 8.35619 1.02582 8.68811 1.35774C9.02002 1.68965 9.20649 2.13982 9.20649 2.60922C9.20649 3.07862 9.02002 3.52879 8.68811 3.8607L4.61968 7.9247C4.45373 8.09066 4.22864 8.1839 3.99394 8.1839C3.75924 8.1839 3.53416 8.09066 3.3682 7.9247C3.20224 7.75875 3.10901 7.53366 3.10901 7.29896C3.10901 7.06426 3.20224 6.83918 3.3682 6.67322L7.12265 2.9232" stroke="#ACA9B6" stroke-width="0.88444" stroke-linecap="round" stroke-linejoin="round"/>
</svg>
