<svg width="18" height="18" viewBox="0 0 18 18" fill="none" xmlns="http://www.w3.org/2000/svg">
<path d="M5.625 4.5C5.47582 4.5 5.33274 4.55926 5.22725 4.66475C5.12176 4.77024 5.0625 4.91332 5.0625 5.0625C5.0625 5.21168 5.12176 5.35476 5.22725 5.46025C5.33274 5.56574 5.47582 5.625 5.625 5.625H12.375C12.5242 5.625 12.6673 5.56574 12.7727 5.46025C12.8782 5.35476 12.9375 5.21168 12.9375 5.0625C12.9375 4.91332 12.8782 4.77024 12.7727 4.66475C12.6673 4.55926 12.5242 4.5 12.375 4.5H5.625ZM5.0625 7.3125C5.0625 7.16332 5.12176 7.02024 5.22725 6.91475C5.33274 6.80926 5.47582 6.75 5.625 6.75H12.375C12.5242 6.75 12.6673 6.80926 12.7727 6.91475C12.8782 7.02024 12.9375 7.16332 12.9375 7.3125C12.9375 7.46168 12.8782 7.60476 12.7727 7.71025C12.6673 7.81574 12.5242 7.875 12.375 7.875H5.625C5.47582 7.875 5.33274 7.81574 5.22725 7.71025C5.12176 7.60476 5.0625 7.46168 5.0625 7.3125ZM5.625 9C5.47582 9 5.33274 9.05926 5.22725 9.16475C5.12176 9.27024 5.0625 9.41332 5.0625 9.5625C5.0625 9.71168 5.12176 9.85476 5.22725 9.96025C5.33274 10.0657 5.47582 10.125 5.625 10.125H12.375C12.5242 10.125 12.6673 10.0657 12.7727 9.96025C12.8782 9.85476 12.9375 9.71168 12.9375 9.5625C12.9375 9.41332 12.8782 9.27024 12.7727 9.16475C12.6673 9.05926 12.5242 9 12.375 9H5.625ZM5.625 11.25C5.47582 11.25 5.33274 11.3093 5.22725 11.4148C5.12176 11.5202 5.0625 11.6633 5.0625 11.8125C5.0625 11.9617 5.12176 12.1048 5.22725 12.2102C5.33274 12.3157 5.47582 12.375 5.625 12.375H9C9.14918 12.375 9.29226 12.3157 9.39775 12.2102C9.50324 12.1048 9.5625 11.9617 9.5625 11.8125C9.5625 11.6633 9.50324 11.5202 9.39775 11.4148C9.29226 11.3093 9.14918 11.25 9 11.25H5.625Z" fill="#0154A6"/>
<path d="M2.25 2.25C2.25 1.65326 2.48705 1.08097 2.90901 0.65901C3.33097 0.237053 3.90326 0 4.5 0L13.5 0C14.0967 0 14.669 0.237053 15.091 0.65901C15.5129 1.08097 15.75 1.65326 15.75 2.25V15.75C15.75 16.3467 15.5129 16.919 15.091 17.341C14.669 17.7629 14.0967 18 13.5 18H4.5C3.90326 18 3.33097 17.7629 2.90901 17.341C2.48705 16.919 2.25 16.3467 2.25 15.75V2.25ZM13.5 1.125H4.5C4.20163 1.125 3.91548 1.24353 3.7045 1.4545C3.49353 1.66548 3.375 1.95163 3.375 2.25V15.75C3.375 16.0484 3.49353 16.3345 3.7045 16.5455C3.91548 16.7565 4.20163 16.875 4.5 16.875H13.5C13.7984 16.875 14.0845 16.7565 14.2955 16.5455C14.5065 16.3345 14.625 16.0484 14.625 15.75V2.25C14.625 1.95163 14.5065 1.66548 14.2955 1.4545C14.0845 1.24353 13.7984 1.125 13.5 1.125Z" fill="#0154A6"/>
</svg>
