<svg width="11" height="11" viewBox="0 0 11 11" fill="none" xmlns="http://www.w3.org/2000/svg">
<g clip-path="url(#clip0_469_153)">
<path d="M6.81763 9.20392C6.81763 9.29433 6.85354 9.38103 6.91747 9.44496C6.9814 9.50889 7.0681 9.5448 7.15851 9.5448H7.84027C7.93068 9.5448 8.01738 9.50889 8.08131 9.44496C8.14524 9.38103 8.18115 9.29433 8.18115 9.20392V5.11334C8.18115 5.02293 8.14524 4.93623 8.08131 4.8723C8.01738 4.80838 7.93068 4.77246 7.84027 4.77246H7.15851C7.0681 4.77246 6.9814 4.80838 6.91747 4.8723C6.85354 4.93623 6.81763 5.02293 6.81763 5.11334V9.20392ZM5.11322 9.5448C5.02281 9.5448 4.93611 9.50889 4.87218 9.44496C4.80825 9.38103 4.77234 9.29433 4.77234 9.20392V6.47687C4.77234 6.38646 4.80825 6.29976 4.87218 6.23583C4.93611 6.1719 5.02281 6.13599 5.11322 6.13599H5.79498C5.88539 6.13599 5.9721 6.1719 6.03602 6.23583C6.09995 6.29976 6.13586 6.38646 6.13586 6.47687V9.20392C6.13586 9.29433 6.09995 9.38103 6.03602 9.44496C5.9721 9.50889 5.88539 9.5448 5.79498 9.5448H5.11322ZM3.06793 9.5448C2.97752 9.5448 2.89082 9.50889 2.82689 9.44496C2.76297 9.38103 2.72705 9.29433 2.72705 9.20392V7.84039C2.72705 7.74999 2.76297 7.66328 2.82689 7.59935C2.89082 7.53543 2.97752 7.49951 3.06793 7.49951H3.74969C3.8401 7.49951 3.92681 7.53543 3.99073 7.59935C4.05466 7.66328 4.09058 7.74999 4.09058 7.84039V9.20392C4.09058 9.29433 4.05466 9.38103 3.99073 9.44496C3.92681 9.50889 3.8401 9.5448 3.74969 9.5448H3.06793Z" fill="#0154A6"/>
<path d="M9.54468 9.54468V3.06793L6.47675 0H2.72705C2.36542 0 2.0186 0.143657 1.76289 0.399367C1.50718 0.655078 1.36353 1.0019 1.36353 1.36353V9.54468C1.36353 9.90631 1.50718 10.2531 1.76289 10.5088C2.0186 10.7645 2.36542 10.9082 2.72705 10.9082H8.18115C8.54278 10.9082 8.8896 10.7645 9.14531 10.5088C9.40102 10.2531 9.54468 9.90631 9.54468 9.54468ZM6.47675 2.04529C6.47675 2.31651 6.58449 2.57662 6.77627 2.76841C6.96805 2.96019 7.22817 3.06793 7.49939 3.06793H8.86292V9.54468C8.86292 9.72549 8.79109 9.8989 8.66323 10.0268C8.53538 10.1546 8.36197 10.2264 8.18115 10.2264H2.72705C2.54624 10.2264 2.37283 10.1546 2.24497 10.0268C2.11712 9.8989 2.04529 9.72549 2.04529 9.54468V1.36353C2.04529 1.18271 2.11712 1.0093 2.24497 0.881446C2.37283 0.753591 2.54624 0.681763 2.72705 0.681763H6.47675V2.04529Z" fill="#0154A6"/>
</g>
<defs>
<clipPath id="clip0_469_153">
<rect width="10.9082" height="10.9082" fill="white"/>
</clipPath>
</defs>
</svg>
