<svg width="12" height="12" viewBox="0 0 12 12" fill="none" xmlns="http://www.w3.org/2000/svg">
<g clip-path="url(#clip0_469_153)">
<path d="M7.50452 9.38361C7.50452 9.47401 7.54043 9.56072 7.60436 9.62465C7.66829 9.68857 7.75499 9.72449 7.8454 9.72449H8.52716C8.61757 9.72449 8.70427 9.68857 8.7682 9.62465C8.83213 9.56072 8.86804 9.47401 8.86804 9.38361V5.29303C8.86804 5.20262 8.83213 5.11592 8.7682 5.05199C8.70427 4.98806 8.61757 4.95215 8.52716 4.95215H7.8454C7.75499 4.95215 7.66829 4.98806 7.60436 5.05199C7.54043 5.11592 7.50452 5.20262 7.50452 5.29303V9.38361ZM5.80011 9.72449C5.7097 9.72449 5.623 9.68857 5.55907 9.62465C5.49514 9.56072 5.45923 9.47401 5.45923 9.38361V6.65656C5.45923 6.56615 5.49514 6.47944 5.55907 6.41552C5.623 6.35159 5.7097 6.31567 5.80011 6.31567H6.48187C6.57228 6.31567 6.65898 6.35159 6.72291 6.41552C6.78684 6.47944 6.82275 6.56615 6.82275 6.65656V9.38361C6.82275 9.47401 6.78684 9.56072 6.72291 9.62465C6.65898 9.68857 6.57228 9.72449 6.48187 9.72449H5.80011ZM3.75482 9.72449C3.66441 9.72449 3.57771 9.68857 3.51378 9.62465C3.44985 9.56072 3.41394 9.47401 3.41394 9.38361V8.02008C3.41394 7.92967 3.44985 7.84297 3.51378 7.77904C3.57771 7.71511 3.66441 7.6792 3.75482 7.6792H4.43658C4.52699 7.6792 4.6137 7.71511 4.67762 7.77904C4.74155 7.84297 4.77747 7.92967 4.77747 8.02008V9.38361C4.77747 9.47401 4.74155 9.56072 4.67762 9.62465C4.6137 9.68857 4.52699 9.72449 4.43658 9.72449H3.75482Z" fill="#0154A6"/>
<path d="M10.2316 9.72437V3.24762L7.16364 0.179688H3.41394C3.05231 0.179688 2.70549 0.323344 2.44978 0.579055C2.19407 0.834765 2.05042 1.18158 2.05042 1.54321V9.72437C2.05042 10.086 2.19407 10.4328 2.44978 10.6885C2.70549 10.9442 3.05231 11.0879 3.41394 11.0879H8.86804C9.22967 11.0879 9.57649 10.9442 9.8322 10.6885C10.0879 10.4328 10.2316 10.086 10.2316 9.72437ZM7.16364 2.22498C7.16364 2.4962 7.27138 2.75631 7.46316 2.94809C7.65494 3.13988 7.91506 3.24762 8.18628 3.24762H9.5498V9.72437C9.5498 9.90518 9.47798 10.0786 9.35012 10.2064C9.22227 10.3343 9.04886 10.4061 8.86804 10.4061H3.41394C3.23313 10.4061 3.05972 10.3343 2.93186 10.2064C2.80401 10.0786 2.73218 9.90518 2.73218 9.72437V1.54321C2.73218 1.3624 2.80401 1.18899 2.93186 1.06113C3.05972 0.933279 3.23313 0.86145 3.41394 0.86145H7.16364V2.22498Z" fill="#0154A6"/>
</g>
<defs>
<clipPath id="clip0_469_153">
<rect width="10.9082" height="10.9082" fill="white" transform="translate(0.68689 0.179688)"/>
</clipPath>
</defs>
</svg>
