<svg width="18" height="18" viewBox="0 0 18 18" fill="none" xmlns="http://www.w3.org/2000/svg">
<path d="M14.625 0H6.75C6.15326 0 5.58097 0.237053 5.15901 0.65901C4.73705 1.08097 4.5 1.65326 4.5 2.25C3.90326 2.25 3.33097 2.48705 2.90901 2.90901C2.48705 3.33097 2.25 3.90326 2.25 4.5V15.75C2.25 16.3467 2.48705 16.919 2.90901 17.341C3.33097 17.7629 3.90326 18 4.5 18H12.375C12.9717 18 13.544 17.7629 13.966 17.341C14.3879 16.919 14.625 16.3467 14.625 15.75C15.2217 15.75 15.794 15.5129 16.216 15.091C16.6379 14.669 16.875 14.0967 16.875 13.5V2.25C16.875 1.65326 16.6379 1.08097 16.216 0.65901C15.794 0.237053 15.2217 0 14.625 0V0ZM14.625 14.625V4.5C14.625 3.90326 14.3879 3.33097 13.966 2.90901C13.544 2.48705 12.9717 2.25 12.375 2.25H5.625C5.625 1.95163 5.74353 1.66548 5.9545 1.4545C6.16548 1.24353 6.45163 1.125 6.75 1.125H14.625C14.9234 1.125 15.2095 1.24353 15.4205 1.4545C15.6315 1.66548 15.75 1.95163 15.75 2.25V13.5C15.75 13.7984 15.6315 14.0845 15.4205 14.2955C15.2095 14.5065 14.9234 14.625 14.625 14.625ZM3.375 4.5C3.375 4.20163 3.49353 3.91548 3.7045 3.7045C3.91548 3.49353 4.20163 3.375 4.5 3.375H12.375C12.6734 3.375 12.9595 3.49353 13.1705 3.7045C13.3815 3.91548 13.5 4.20163 13.5 4.5V15.75C13.5 16.0484 13.3815 16.3345 13.1705 16.5455C12.9595 16.7565 12.6734 16.875 12.375 16.875H4.5C4.20163 16.875 3.91548 16.7565 3.7045 16.5455C3.49353 16.3345 3.375 16.0484 3.375 15.75V4.5Z" fill="#0154A6"/>
</svg>
