<svg width="24" height="25" viewBox="0 0 24 25" fill="none" xmlns="http://www.w3.org/2000/svg">
<path d="M1.49999 5.56299C1.49999 4.96625 1.73705 4.39395 2.159 3.972C2.58096 3.55004 3.15326 3.31299 3.74999 3.31299H7.89599C9.33299 3.31299 10.536 4.15299 11.3625 5.08899C11.9775 5.78499 12.72 6.31299 13.5 6.31299H20.25C20.8467 6.31299 21.419 6.55004 21.841 6.972C22.2629 7.39395 22.5 7.96625 22.5 8.56299V9.52299C23.355 9.92049 23.91 10.837 23.784 11.842L22.824 19.528C22.7106 20.4356 22.2694 21.2704 21.5835 21.8754C20.8975 22.4804 20.0141 22.8138 19.0995 22.813H4.89899C3.98489 22.8131 3.10222 22.4793 2.41691 21.8744C1.7316 21.2695 1.29084 20.435 1.17749 19.528L0.217495 11.842C0.158354 11.3695 0.250659 10.8904 0.481123 10.4736C0.711587 10.0569 1.06833 9.72407 1.49999 9.52299V5.56299ZM2.99999 9.31299H21V8.56299C21 8.36408 20.921 8.17331 20.7803 8.03266C20.6397 7.89201 20.4489 7.81299 20.25 7.81299H13.5C12.054 7.81299 10.935 6.86949 10.239 6.08199C9.56099 5.31399 8.72999 4.81299 7.89599 4.81299H3.74999C3.55108 4.81299 3.36032 4.89201 3.21966 5.03266C3.07901 5.17331 2.99999 5.36408 2.99999 5.56299V9.31299ZM2.44949 10.813C2.34317 10.813 2.23807 10.8357 2.14116 10.8794C2.04424 10.9231 1.95774 10.987 1.88739 11.0667C1.81703 11.1464 1.76443 11.2402 1.73307 11.3418C1.70171 11.4434 1.69231 11.5505 1.70549 11.656L2.66549 19.342C2.73352 19.8863 2.99806 20.3871 3.40937 20.75C3.82068 21.113 4.35043 21.3132 4.89899 21.313H19.101C19.6496 21.3132 20.1793 21.113 20.5906 20.75C21.0019 20.3871 21.2665 19.8863 21.3345 19.342L22.2945 11.656C22.3077 11.5505 22.2983 11.4434 22.2669 11.3418C22.2356 11.2402 22.183 11.1464 22.1126 11.0667C22.0422 10.987 21.9557 10.9231 21.8588 10.8794C21.7619 10.8357 21.6568 10.813 21.5505 10.813H2.44949Z" fill="#E9ECEF"/>
</svg>
