<svg width="24" height="25" viewBox="0 0 24 25" fill="none" xmlns="http://www.w3.org/2000/svg">
<path d="M12.531 2.03211C12.4613 1.96226 12.3786 1.90685 12.2875 1.86904C12.1963 1.83123 12.0987 1.81177 12 1.81177C11.9014 1.81177 11.8037 1.83123 11.7126 1.86904C11.6214 1.90685 11.5387 1.96226 11.469 2.03211L2.469 11.0321C2.3994 11.1019 2.34423 11.1847 2.30665 11.2758C2.26908 11.3669 2.24983 11.4646 2.25 11.5631V22.0631C2.25 22.262 2.32902 22.4528 2.46967 22.5934C2.61032 22.7341 2.80109 22.8131 3 22.8131H9.75C9.94891 22.8131 10.1397 22.7341 10.2803 22.5934C10.421 22.4528 10.5 22.262 10.5 22.0631V16.0631H13.5V22.0631C13.5 22.262 13.579 22.4528 13.7197 22.5934C13.8603 22.7341 14.0511 22.8131 14.25 22.8131H21C21.1989 22.8131 21.3897 22.7341 21.5303 22.5934C21.671 22.4528 21.75 22.262 21.75 22.0631V11.5631C21.7502 11.4646 21.7309 11.3669 21.6933 11.2758C21.6558 11.1847 21.6006 11.1019 21.531 11.0321L19.5 9.00261V4.06311C19.5 3.8642 19.421 3.67343 19.2803 3.53278C19.1397 3.39213 18.9489 3.31311 18.75 3.31311H17.25C17.0511 3.31311 16.8603 3.39213 16.7197 3.53278C16.579 3.67343 16.5 3.8642 16.5 4.06311V6.00261L12.531 2.03211ZM3.75 21.3131V11.8736L12 3.62361L20.25 11.8736V21.3131H15V15.3131C15 15.1142 14.921 14.9234 14.7803 14.7828C14.6397 14.6421 14.4489 14.5631 14.25 14.5631H9.75C9.55109 14.5631 9.36032 14.6421 9.21967 14.7828C9.07902 14.9234 9 15.1142 9 15.3131V21.3131H3.75Z" fill="#BCD1E1"/>
</svg>
