<svg width="18" height="18" viewBox="0 0 18 18" fill="none" xmlns="http://www.w3.org/2000/svg">
<g clip-path="url(#clip0_489_2261)">
<path d="M5.60252 1.125C5.51821 1.12512 5.43501 1.14419 5.35906 1.1808C5.28312 1.21741 5.21638 1.27062 5.16377 1.3365L1.73252 5.625H6.75002C6.8992 5.625 7.04228 5.68426 7.14776 5.78975C7.25325 5.89524 7.31252 6.03832 7.31252 6.1875C7.31252 6.63505 7.49031 7.06428 7.80677 7.38074C8.12324 7.69721 8.55246 7.875 9.00002 7.875C9.44757 7.875 9.87679 7.69721 10.1933 7.38074C10.5097 7.06428 10.6875 6.63505 10.6875 6.1875C10.6875 6.03832 10.7468 5.89524 10.8523 5.78975C10.9578 5.68426 11.1008 5.625 11.25 5.625H16.2675L12.8363 1.3365C12.7837 1.27062 12.7169 1.21741 12.641 1.1808C12.565 1.14419 12.4818 1.12512 12.3975 1.125H5.60252ZM16.8008 6.75H11.7563C11.6272 7.38579 11.2822 7.95739 10.7799 8.36796C10.2776 8.77853 9.64878 9.00282 9.00002 9.00282C8.35125 9.00282 7.72244 8.77853 7.22012 8.36796C6.7178 7.95739 6.37287 7.38579 6.24377 6.75H1.19927L1.55927 9.63225C1.57631 9.76865 1.64272 9.8941 1.74594 9.98488C1.84916 10.0757 1.98205 10.1255 2.11952 10.125H15.8828C16.0198 10.125 16.1522 10.0749 16.2549 9.98413C16.3577 9.8934 16.4238 9.76827 16.4408 9.63225L16.7996 6.75H16.8008ZM4.28514 0.633375C4.44331 0.435645 4.64396 0.276045 4.8722 0.166403C5.10044 0.0567608 5.35043 -0.000111689 5.60364 1.64672e-07H12.3964C12.6496 -0.000111689 12.8996 0.0567608 13.1278 0.166403C13.3561 0.276045 13.5567 0.435645 13.7149 0.633375L17.8774 5.8365C17.9242 5.89521 17.9587 5.96267 17.979 6.03493C17.9993 6.10719 18.0049 6.18278 17.9955 6.25725L17.5568 9.77175C17.5057 10.18 17.3073 10.5555 16.9989 10.8278C16.6904 11.1 16.2931 11.2502 15.8816 11.25H2.11839C1.70697 11.2502 1.30966 11.1 1.00117 10.8278C0.692689 10.5555 0.494284 10.18 0.443268 9.77175L0.00451784 6.25725C-0.00470295 6.18271 0.00109831 6.10707 0.0215794 6.03481C0.0420605 5.96255 0.0768065 5.89512 0.123768 5.8365L4.28627 0.633375H4.28514ZM0.140643 12.5662C0.193355 12.5062 0.25824 12.4582 0.330981 12.4252C0.403722 12.3922 0.482651 12.3751 0.562518 12.375H6.75002C6.8992 12.375 7.04228 12.4343 7.14776 12.5398C7.25325 12.6452 7.31252 12.7883 7.31252 12.9375C7.31252 13.3851 7.49031 13.8143 7.80677 14.1307C8.12324 14.4472 8.55246 14.625 9.00002 14.625C9.44757 14.625 9.87679 14.4472 10.1933 14.1307C10.5097 13.8143 10.6875 13.3851 10.6875 12.9375C10.6875 12.7883 10.7468 12.6452 10.8523 12.5398C10.9578 12.4343 11.1008 12.375 11.25 12.375H17.4375C17.5173 12.375 17.5961 12.392 17.6688 12.4248C17.7415 12.4576 17.8063 12.5055 17.8591 12.5653C17.9119 12.6251 17.9513 12.6954 17.9748 12.7716C17.9984 12.8478 18.0054 12.9281 17.9955 13.0072L17.5568 16.5217C17.5057 16.93 17.3073 17.3055 16.9989 17.5778C16.6904 17.85 16.2931 18.0002 15.8816 18H2.11839C1.70697 18.0002 1.30966 17.85 1.00117 17.5778C0.692689 17.3055 0.494284 16.93 0.443268 16.5217L0.00451784 13.0072C-0.0054336 12.9281 0.00155708 12.8478 0.025026 12.7715C0.0484949 12.6953 0.0879055 12.625 0.140643 12.5651V12.5662ZM1.19927 13.5L1.55927 16.3822C1.57629 16.5185 1.64253 16.6437 1.74552 16.7345C1.8485 16.8253 1.98112 16.8752 2.11839 16.875H15.8816C16.0187 16.875 16.1511 16.8249 16.2538 16.7341C16.3566 16.6434 16.4226 16.5183 16.4396 16.3822L16.7996 13.5H11.7563C11.6272 14.1358 11.2822 14.7074 10.7799 15.118C10.2776 15.5285 9.64878 15.7528 9.00002 15.7528C8.35125 15.7528 7.72244 15.5285 7.22012 15.118C6.7178 14.7074 6.37287 14.1358 6.24377 13.5H1.19927Z" fill="#0154A6"/>
</g>
<defs>
<clipPath id="clip0_489_2261">
<rect width="18" height="18" fill="white"/>
</clipPath>
</defs>
</svg>
