<svg width="8" height="8" viewBox="0 0 8 8" fill="none" xmlns="http://www.w3.org/2000/svg">
<path d="M4.38059 1.82442C4.54852 1.82442 4.68465 1.68829 4.68465 1.52036C4.68465 1.35244 4.54852 1.21631 4.38059 1.21631C4.21267 1.21631 4.07654 1.35244 4.07654 1.52036C4.07654 1.68829 4.21267 1.82442 4.38059 1.82442Z" fill="#ACA9B6" fill-opacity="0.75" stroke="#ACA9B6" stroke-opacity="0.75" stroke-width="0.608108" stroke-linecap="round" stroke-linejoin="round"/>
<path d="M4.38059 4.0544C4.54852 4.0544 4.68465 3.91827 4.68465 3.75034C4.68465 3.58242 4.54852 3.44629 4.38059 3.44629C4.21267 3.44629 4.07654 3.58242 4.07654 3.75034C4.07654 3.91827 4.21267 4.0544 4.38059 4.0544Z" fill="#ACA9B6" fill-opacity="0.75" stroke="#ACA9B6" stroke-opacity="0.75" stroke-width="0.608108" stroke-linecap="round" stroke-linejoin="round"/>
<path d="M4.38059 6.28389C4.54852 6.28389 4.68465 6.14776 4.68465 5.97984C4.68465 5.81191 4.54852 5.67578 4.38059 5.67578C4.21267 5.67578 4.07654 5.81191 4.07654 5.97984C4.07654 6.14776 4.21267 6.28389 4.38059 6.28389Z" fill="#ACA9B6" fill-opacity="0.75" stroke="#ACA9B6" stroke-opacity="0.75" stroke-width="0.608108" stroke-linecap="round" stroke-linejoin="round"/>
</svg>
