<svg width="9" height="9" viewBox="0 0 9 9" fill="none" xmlns="http://www.w3.org/2000/svg">
<g clip-path="url(#clip0_502_7287)">
<path d="M7.98425 4.18509L4.93625 7.23309C4.56284 7.6065 4.0564 7.81627 3.52833 7.81627C3.00026 7.81627 2.49381 7.6065 2.12041 7.23309C1.74701 6.85969 1.53723 6.35325 1.53723 5.82517C1.53723 5.2971 1.74701 4.79066 2.12041 4.41726L5.16841 1.36925C5.41735 1.12032 5.75498 0.980469 6.10702 0.980469C6.45907 0.980469 6.7967 1.12032 7.04564 1.36925C7.29457 1.61819 7.43442 1.95582 7.43442 2.30787C7.43442 2.65991 7.29457 2.99754 7.04564 3.24648L3.99432 6.29448C3.86985 6.41895 3.70104 6.48887 3.52501 6.48887C3.34899 6.48887 3.18017 6.41895 3.05571 6.29448C2.93124 6.17001 2.86131 6.0012 2.86131 5.82517C2.86131 5.64915 2.93124 5.48034 3.05571 5.35587L5.87154 2.54335" stroke="#ACA9B6" stroke-width="0.66333" stroke-linecap="round" stroke-linejoin="round"/>
</g>
<defs>
<clipPath id="clip0_502_7287">
<rect width="7.95996" height="7.95996" fill="white" transform="translate(0.873291 0.52002)"/>
</clipPath>
</defs>
</svg>
