<svg width="133" height="91" viewBox="0 0 133 91" fill="none" xmlns="http://www.w3.org/2000/svg">
<path fill-rule="evenodd" clip-rule="evenodd" d="M104.172 88.3784H34.908H33.054H30.0188V88.2372C13.6674 86.7077 0.869873 72.9455 0.869873 56.1943V54.3403C0.869873 37.1491 14.3486 23.106 31.3146 22.2025C37.4816 9.14706 50.7686 0.114258 66.1653 0.114258C85.159 0.114258 100.942 13.8606 104.109 31.9473L104.172 31.9473C119.755 31.9473 132.387 44.5798 132.387 60.1628C132.387 74.7701 121.287 86.7847 107.062 88.2322V88.3784H104.172Z" fill="#F5F6FA"/>
<path d="M63.6669 34.7101C63.9183 34.4416 64.2222 34.2275 64.5596 34.0812C64.8971 33.9349 65.261 33.8594 65.6288 33.8594C65.9966 33.8594 66.3605 33.9349 66.698 34.0812C67.0355 34.2275 67.3393 34.4416 67.5907 34.7101L84.6429 52.9045C86.2554 54.6191 85.0353 57.4275 82.681 57.4275H75.0351V60.115C75.0351 60.8278 74.7519 61.5114 74.2479 62.0154C73.7439 62.5194 73.0603 62.8025 72.3476 62.8025H58.9101C58.1973 62.8025 57.5137 62.5194 57.0097 62.0154C56.5057 61.5114 56.2226 60.8278 56.2226 60.115V57.4275H48.5739C46.2251 57.4275 45.0049 54.6191 46.6121 52.9018L63.6669 34.7101ZM56.2226 68.1775C56.2226 67.4648 56.5057 66.7812 57.0097 66.2772C57.5137 65.7732 58.1973 65.49 58.9101 65.49H72.3476C73.0603 65.49 73.7439 65.7732 74.2479 66.2772C74.7519 66.7812 75.0351 67.4648 75.0351 68.1775V70.865C75.0351 71.5778 74.7519 72.2614 74.2479 72.7654C73.7439 73.2694 73.0603 73.5525 72.3476 73.5525H58.9101C58.1973 73.5525 57.5137 73.2694 57.0097 72.7654C56.5057 72.2614 56.2226 71.5778 56.2226 70.865V68.1775Z" fill="white"/>
</svg>
