<svg width="24" height="25" viewBox="0 0 24 25" fill="none" xmlns="http://www.w3.org/2000/svg">
<g clip-path="url(#clip0_486_295)">
<path d="M9 1.81299V6.31299H1.5V1.81299H9ZM1.5 0.312988C1.10218 0.312988 0.720644 0.471024 0.43934 0.752328C0.158035 1.03363 0 1.41516 0 1.81299L0 6.31299C0 6.71081 0.158035 7.09234 0.43934 7.37365C0.720644 7.65495 1.10218 7.81299 1.5 7.81299H9C9.39782 7.81299 9.77936 7.65495 10.0607 7.37365C10.342 7.09234 10.5 6.71081 10.5 6.31299V1.81299C10.5 1.41516 10.342 1.03363 10.0607 0.752328C9.77936 0.471024 9.39782 0.312988 9 0.312988L1.5 0.312988ZM22.5 18.313V22.813H15V18.313H22.5ZM15 16.813C14.6022 16.813 14.2206 16.971 13.9393 17.2523C13.658 17.5336 13.5 17.9152 13.5 18.313V22.813C13.5 23.2108 13.658 23.5923 13.9393 23.8736C14.2206 24.155 14.6022 24.313 15 24.313H22.5C22.8978 24.313 23.2794 24.155 23.5607 23.8736C23.842 23.5923 24 23.2108 24 22.813V18.313C24 17.9152 23.842 17.5336 23.5607 17.2523C23.2794 16.971 22.8978 16.813 22.5 16.813H15ZM9 12.313V22.813H1.5V12.313H9ZM1.5 10.813C1.10218 10.813 0.720644 10.971 0.43934 11.2523C0.158035 11.5336 0 11.9152 0 12.313L0 22.813C0 23.2108 0.158035 23.5923 0.43934 23.8736C0.720644 24.155 1.10218 24.313 1.5 24.313H9C9.39782 24.313 9.77936 24.155 10.0607 23.8736C10.342 23.5923 10.5 23.2108 10.5 22.813V12.313C10.5 11.9152 10.342 11.5336 10.0607 11.2523C9.77936 10.971 9.39782 10.813 9 10.813H1.5ZM22.5 1.81299V12.313H15V1.81299H22.5ZM15 0.312988C14.6022 0.312988 14.2206 0.471024 13.9393 0.752328C13.658 1.03363 13.5 1.41516 13.5 1.81299V12.313C13.5 12.7108 13.658 13.0923 13.9393 13.3736C14.2206 13.655 14.6022 13.813 15 13.813H22.5C22.8978 13.813 23.2794 13.655 23.5607 13.3736C23.842 13.0923 24 12.7108 24 12.313V1.81299C24 1.41516 23.842 1.03363 23.5607 0.752328C23.2794 0.471024 22.8978 0.312988 22.5 0.312988L15 0.312988Z" fill="#E9ECEF"/>
</g>
<defs>
<clipPath id="clip0_486_295">
<rect width="24" height="24" fill="white" transform="translate(0 0.312988)"/>
</clipPath>
</defs>
</svg>
