<svg width="24" height="25" viewBox="0 0 24 25" fill="none" xmlns="http://www.w3.org/2000/svg">
<g clip-path="url(#clip0_486_297)">
<path d="M4.29906 22.588C4.18205 23.254 4.83906 23.7745 5.41806 23.4775L12.0031 20.0935L18.5866 23.4775C19.1656 23.7745 19.8226 23.254 19.7056 22.5895L18.4606 15.4945L23.7436 10.4605C24.2386 9.98949 23.9836 9.12849 23.3206 9.03549L15.9736 7.99149L12.6976 1.50099C12.6351 1.36943 12.5367 1.25827 12.4136 1.18043C12.2906 1.1026 12.1479 1.06128 12.0023 1.06128C11.8567 1.06128 11.7141 1.1026 11.591 1.18043C11.4679 1.25827 11.3695 1.36943 11.3071 1.50099L8.03106 7.99299L0.684055 9.03699C0.0225553 9.12999 -0.233945 9.99099 0.259555 10.462L5.54406 15.496L4.29906 22.591V22.588ZM11.6566 18.4375L6.12756 21.2785L7.16856 15.343C7.19294 15.2064 7.1834 15.0658 7.14077 14.9338C7.09814 14.8017 7.02372 14.6821 6.92406 14.5855L2.56506 10.4305L8.64305 9.56649C8.76891 9.54749 8.88829 9.49826 8.99095 9.42302C9.09362 9.34778 9.17652 9.24878 9.23256 9.13449L12.0001 3.64749L14.7706 9.13449C14.8266 9.24878 14.9095 9.34778 15.0122 9.42302C15.1148 9.49826 15.2342 9.54749 15.3601 9.56649L21.4381 10.429L17.0791 14.584C16.9792 14.6807 16.9046 14.8006 16.862 14.9329C16.8193 15.0653 16.8099 15.2061 16.8346 15.343L17.8756 21.2785L12.3466 18.4375C12.2396 18.3824 12.1211 18.3536 12.0008 18.3536C11.8805 18.3536 11.762 18.3824 11.6551 18.4375H11.6566Z" fill="#E9ECEF"/>
</g>
<defs>
<clipPath id="clip0_486_297">
<rect width="24" height="24" fill="white" transform="translate(0 0.312988)"/>
</clipPath>
</defs>
</svg>
