<svg width="13" height="13" viewBox="0 0 13 13" fill="none" xmlns="http://www.w3.org/2000/svg">
<path d="M6.21191 0.760742C6.41083 0.760742 6.60159 0.83976 6.74224 0.980412C6.8829 1.12106 6.96191 1.31183 6.96191 1.51074V6.01074H11.4619C11.6608 6.01074 11.8516 6.08976 11.9922 6.23041C12.1329 6.37106 12.2119 6.56183 12.2119 6.76074C12.2119 6.95965 12.1329 7.15042 11.9922 7.29107C11.8516 7.43173 11.6608 7.51074 11.4619 7.51074H6.96191V12.0107C6.96191 12.2097 6.8829 12.4004 6.74224 12.5411C6.60159 12.6817 6.41083 12.7607 6.21191 12.7607C6.013 12.7607 5.82224 12.6817 5.68158 12.5411C5.54093 12.4004 5.46191 12.2097 5.46191 12.0107V7.51074H0.961914C0.763002 7.51074 0.572236 7.43173 0.431584 7.29107C0.290932 7.15042 0.211914 6.95965 0.211914 6.76074C0.211914 6.56183 0.290932 6.37106 0.431584 6.23041C0.572236 6.08976 0.763002 6.01074 0.961914 6.01074H5.46191V1.51074C5.46191 1.31183 5.54093 1.12106 5.68158 0.980412C5.82224 0.83976 6.013 0.760742 6.21191 0.760742Z" fill="#ACA9B6" fill-opacity="0.75"/>
</svg>
