<svg width="9" height="14" viewBox="0 0 9 14" fill="none" xmlns="http://www.w3.org/2000/svg">
<path d="M0.0944199 3.43974C0.0923665 3.48818 0.100244 3.53653 0.117567 3.58182C0.13489 3.6271 0.161293 3.66836 0.195153 3.70307C0.229013 3.73777 0.269613 3.76518 0.314458 3.78361C0.359302 3.80204 0.407443 3.8111 0.455919 3.81024H1.69342C1.90042 3.81024 2.06542 3.64074 2.09242 3.43524C2.22742 2.45124 2.90242 1.73424 4.10542 1.73424C5.13442 1.73424 6.07642 2.24874 6.07642 3.48624C6.07642 4.43874 5.51542 4.87674 4.62892 5.54274C3.61942 6.27624 2.81992 7.13274 2.87692 8.52324L2.88142 8.84874C2.88299 8.94716 2.9232 9.041 2.99335 9.11004C3.06351 9.17907 3.15799 9.21775 3.25642 9.21774H4.47292C4.57238 9.21774 4.66776 9.17823 4.73808 9.10791C4.80841 9.03758 4.84792 8.9422 4.84792 8.84274V8.68524C4.84792 7.60824 5.25742 7.29474 6.36292 6.45624C7.27642 5.76174 8.22892 4.99074 8.22892 3.37224C8.22892 1.10574 6.31492 0.0107422 4.21942 0.0107422C2.31892 0.0107422 0.23692 0.895742 0.0944199 3.43974ZM2.42992 12.0842C2.42992 12.8837 3.06742 13.4747 3.94492 13.4747C4.85842 13.4747 5.48692 12.8837 5.48692 12.0842C5.48692 11.2562 4.85692 10.6742 3.94342 10.6742C3.06742 10.6742 2.42992 11.2562 2.42992 12.0842Z" fill="#ACA9B6" fill-opacity="0.75"/>
</svg>
