<svg width="24" height="25" viewBox="0 0 24 25" fill="none" xmlns="http://www.w3.org/2000/svg">
<g clip-path="url(#clip0_486_305)">
<path d="M12 7.44385C11.3606 7.44385 10.7274 7.56979 10.1367 7.81448C9.54596 8.05917 9.00921 8.41782 8.55708 8.86994C8.10495 9.32207 7.7463 9.85883 7.50161 10.4496C7.25692 11.0403 7.13098 11.6734 7.13098 12.3128C7.13098 12.9523 7.25692 13.5854 7.50161 14.1761C7.7463 14.7669 8.10495 15.3036 8.55708 15.7558C9.00921 16.2079 9.54596 16.5665 10.1367 16.8112C10.7274 17.0559 11.3606 17.1818 12 17.1818C13.2913 17.1818 14.5298 16.6689 15.4429 15.7558C16.356 14.8426 16.869 13.6042 16.869 12.3128C16.869 11.0215 16.356 9.78306 15.4429 8.86994C14.5298 7.95683 13.2913 7.44385 12 7.44385ZM8.63098 12.3128C8.63098 11.4193 8.98593 10.5624 9.61774 9.9306C10.2495 9.29879 11.1065 8.94385 12 8.94385C12.8935 8.94385 13.7504 9.29879 14.3822 9.9306C15.014 10.5624 15.369 11.4193 15.369 12.3128C15.369 13.2064 15.014 14.0633 14.3822 14.6951C13.7504 15.3269 12.8935 15.6818 12 15.6818C11.1065 15.6818 10.2495 15.3269 9.61774 14.6951C8.98593 14.0633 8.63098 13.2064 8.63098 12.3128Z" fill="#E9ECEF"/>
<path d="M14.6937 2.32723C13.9032 -0.357773 10.0962 -0.357773 9.30574 2.32723L9.16474 2.80573C9.10953 2.99315 9.01308 3.16585 8.88246 3.31116C8.75184 3.45647 8.59036 3.57071 8.40985 3.6455C8.22934 3.7203 8.03439 3.75375 7.83927 3.7434C7.64415 3.73306 7.45383 3.67918 7.28224 3.58573L6.84424 3.34573C4.38424 2.00773 1.69474 4.69873 3.03424 7.15723L3.27274 7.59523C3.3662 7.76681 3.42007 7.95714 3.43041 8.15226C3.44076 8.34737 3.40731 8.54233 3.33252 8.72284C3.25772 8.90335 3.14349 9.06483 2.99818 9.19545C2.85287 9.32607 2.68017 9.42252 2.49274 9.47773L2.01424 9.61873C-0.670762 10.4092 -0.670762 14.2162 2.01424 15.0067L2.49274 15.1477C2.68017 15.2029 2.85287 15.2994 2.99818 15.43C3.14349 15.5606 3.25772 15.7221 3.33252 15.9026C3.40731 16.0831 3.44076 16.2781 3.43041 16.4732C3.42007 16.6683 3.3662 16.8586 3.27274 17.0302L3.03274 17.4682C1.69474 19.9282 4.38424 22.6192 6.84424 21.2782L7.28224 21.0397C7.45383 20.9463 7.64415 20.8924 7.83927 20.882C8.03439 20.8717 8.22934 20.9052 8.40985 20.9799C8.59036 21.0547 8.75184 21.169 8.88246 21.3143C9.01308 21.4596 9.10953 21.6323 9.16474 21.8197L9.30574 22.2982C10.0962 24.9832 13.9032 24.9832 14.6937 22.2982L14.8347 21.8197C14.8899 21.6323 14.9864 21.4596 15.117 21.3143C15.2476 21.169 15.4091 21.0547 15.5896 20.9799C15.7701 20.9052 15.9651 20.8717 16.1602 20.882C16.3553 20.8924 16.5457 20.9463 16.7172 21.0397L17.1552 21.2797C19.6152 22.6192 22.3062 19.9267 20.9652 17.4682L20.7267 17.0302C20.6333 16.8586 20.5794 16.6683 20.5691 16.4732C20.5587 16.2781 20.5922 16.0831 20.667 15.9026C20.7418 15.7221 20.856 15.5606 21.0013 15.43C21.1466 15.2994 21.3193 15.2029 21.5067 15.1477L21.9852 15.0067C24.6702 14.2162 24.6702 10.4092 21.9852 9.61873L21.5067 9.47773C21.3193 9.42252 21.1466 9.32607 21.0013 9.19545C20.856 9.06483 20.7418 8.90335 20.667 8.72284C20.5922 8.54233 20.5587 8.34737 20.5691 8.15226C20.5794 7.95714 20.6333 7.76681 20.7267 7.59523L20.9667 7.15723C22.3062 4.69723 19.6137 2.00773 17.1552 3.34723L16.7172 3.58573C16.5457 3.67918 16.3553 3.73306 16.1602 3.7434C15.9651 3.75375 15.7701 3.7203 15.5896 3.6455C15.4091 3.57071 15.2476 3.45647 15.117 3.31116C14.9864 3.16585 14.8899 2.99315 14.8347 2.80573L14.6937 2.32723ZM10.7442 2.75173C11.1132 1.49923 12.8862 1.49923 13.2552 2.75173L13.3962 3.23023C13.5148 3.63235 13.7218 4.00286 14.0021 4.31458C14.2825 4.62629 14.629 4.87132 15.0164 5.0317C15.4037 5.19207 15.822 5.26373 16.2407 5.24141C16.6593 5.21909 17.0676 5.10337 17.4357 4.90273L17.8722 4.66273C19.0182 4.04023 20.2722 5.29273 19.6482 6.44023L19.4097 6.87823C19.2094 7.24637 19.094 7.65467 19.0719 8.07321C19.0498 8.49175 19.1217 8.90993 19.2822 9.2971C19.4427 9.68428 19.6878 10.0306 19.9995 10.3108C20.3112 10.591 20.6817 10.7978 21.0837 10.9162L21.5607 11.0572C22.8132 11.4262 22.8132 13.1992 21.5607 13.5682L21.0822 13.7092C20.6801 13.8278 20.3096 14.0348 19.9979 14.3151C19.6862 14.5955 19.4411 14.942 19.2808 15.3293C19.1204 15.7167 19.0487 16.135 19.0711 16.5536C19.0934 16.9723 19.2091 17.3806 19.4097 17.7487L19.6497 18.1852C20.2722 19.3312 19.0197 20.5852 17.8722 19.9612L17.4357 19.7227C17.0675 19.5221 16.6591 19.4064 16.2404 19.3842C15.8217 19.362 15.4033 19.4338 15.0159 19.5943C14.6285 19.7548 14.282 20 14.0018 20.3119C13.7215 20.6238 13.5146 20.9945 13.3962 21.3967L13.2552 21.8737C12.8862 23.1262 11.1132 23.1262 10.7442 21.8737L10.6032 21.3952C10.4847 20.9933 10.2777 20.623 9.99743 20.3114C9.7172 19.9999 9.37082 19.755 8.98367 19.5946C8.59652 19.4342 8.1784 19.3625 7.75994 19.3847C7.34148 19.4069 6.93328 19.5224 6.56524 19.7227L6.12724 19.9627C4.98124 20.5852 3.72724 19.3327 4.35124 18.1852L4.58974 17.7487C4.79067 17.3806 4.90661 16.9721 4.92908 16.5533C4.95154 16.1345 4.87995 15.7159 4.71955 15.3284C4.55916 14.9409 4.31403 14.5941 4.00216 14.3137C3.69028 14.0333 3.31958 13.8262 2.91724 13.7077L2.43874 13.5667C1.18624 13.1977 1.18624 11.4247 2.43874 11.0557L2.91724 10.9147C3.31895 10.7961 3.68905 10.5891 4.00045 10.309C4.31186 10.0289 4.55668 9.68267 4.71702 9.29571C4.87735 8.90875 4.94913 8.49084 4.92711 8.07256C4.90509 7.65427 4.78982 7.24621 4.58974 6.87823L4.34974 6.44023C3.72724 5.29423 4.97974 4.04023 6.12724 4.66423L6.56524 4.90273C6.93328 5.10309 7.34148 5.21859 7.75994 5.24076C8.1784 5.26293 8.59652 5.19121 8.98367 5.03085C9.37082 4.8705 9.7172 4.62557 9.99743 4.31401C10.2777 4.00245 10.4847 3.63214 10.6032 3.23023L10.7442 2.75173Z" fill="#E9ECEF"/>
</g>
<defs>
<clipPath id="clip0_486_305">
<rect width="24" height="24" fill="white" transform="translate(0 0.312988)"/>
</clipPath>
</defs>
</svg>
